<?xml version="1.0" encoding="utf-8"?>
<!-- Generator: Adobe Illustrator 16.0.0, SVG Export Plug-In . SVG Version: 6.00 Build 0)  -->
<!DOCTYPE svg PUBLIC "-//W3C//DTD SVG 1.1//EN" "http://www.w3.org/Graphics/SVG/1.1/DTD/svg11.dtd">
<svg version="1.1" xmlns="http://www.w3.org/2000/svg" xmlns:xlink="http://www.w3.org/1999/xlink" x="0px" y="0px"
	 width="528.832px" height="358.176px" viewBox="0 0 528.832 358.176" enable-background="new 0 0 528.832 358.176"
	 xml:space="preserve">
<g id="Background">
</g>
<g id="Objects">
	<g>
		<g>
			<g>
				<path opacity="0.7" fill="#D3D3D3" d="M470.643,134.768l-29.769-63.396c-1.143-2.434-3.628-4.006-6.331-4.006
					c-1.026,0-2.019,0.221-2.949,0.659l-26.401,12.416c-3.479,1.636-4.979,5.796-3.345,9.275l29.769,63.396
					c0.978,2.083,3.104,3.428,5.417,3.428c0.877,0,1.727-0.189,2.523-0.564l28.224-13.273
					C470.756,141.305,472.04,137.745,470.643,134.768z"/>
				<g>
					<g>
						<g>
							<g>
								<path fill="#F4F4F4" d="M468.573,139.228L440.35,152.5c-2.722,1.279-5.993,0.1-7.271-2.622L403.31,86.481
									c-1.512-3.22-0.115-7.092,3.104-8.605l26.4-12.416c3.223-1.516,7.098-0.118,8.611,3.105l29.768,63.396
									C472.47,134.68,471.291,137.949,468.573,139.228z"/>
							</g>
							<g>
								<path fill="#BBBDBF" d="M438.04,153.521c-2.312,0-4.439-1.346-5.417-3.428l-29.769-63.397
									c-1.634-3.479-0.134-7.64,3.345-9.274l26.401-12.416c0.931-0.438,1.923-0.66,2.95-0.66c2.703,0,5.188,1.573,6.33,4.007
									l29.769,63.396c1.398,2.978,0.114,6.537-2.862,7.936l-28.224,13.273C439.767,153.33,438.917,153.521,438.04,153.521z
									 M435.551,65.353c-0.878,0-1.727,0.189-2.521,0.563l-26.401,12.415c-2.977,1.4-4.26,4.96-2.862,7.936l29.768,63.397
									c0.813,1.731,2.583,2.85,4.507,2.85c0.729,0,1.433-0.157,2.095-0.469l28.225-13.272c2.474-1.164,3.541-4.123,2.379-6.597
									L440.971,68.78C439.992,66.697,437.865,65.353,435.551,65.353z"/>
							</g>
						</g>
						<path fill="#2C2E3A" d="M467.139,127.761l-34.7,16.318l-26.199-55.796c-0.234-0.499-0.02-1.095,0.479-1.33l32.891-15.467
							c0.499-0.234,1.096-0.02,1.33,0.48L467.139,127.761z"/>
						<path fill="#343A54" d="M424.711,74.472l-6.186,2.909c-0.118,0.056-0.261,0-0.319-0.124l0,0
							c-0.058-0.123-0.009-0.269,0.108-0.324l6.187-2.909c0.117-0.055,0.261,0.001,0.318,0.124l0,0
							C424.877,74.271,424.828,74.417,424.711,74.472z"/>
						
							<ellipse transform="matrix(0.9047 -0.4261 0.4261 0.9047 6.4563 184.9429)" fill="#343A54" cx="416.536" cy="78.043" rx="0.55" ry="0.578"/>
						<g>
							
								<ellipse transform="matrix(0.9049 -0.4255 0.4255 0.9049 -16.9528 205.7601)" fill="#FFFFFF" cx="452.092" cy="140.827" rx="3.143" ry="3.303"/>
						</g>
					</g>
					<path opacity="0.17" fill="#F2F2F2" d="M440.942,71.973l-23.106,41.009L406.242,88.29c0,0-0.265-0.988,0.439-1.319
						s32.966-15.502,32.966-15.502S440.528,71.09,440.942,71.973z"/>
				</g>
			</g>
			<g>
				<path opacity="0.7" fill="#D3D3D3" d="M434.243,172.036l-78.747-23.862c-3.7-1.118-7.617,0.977-8.737,4.673l-32.556,107.432
					c-1.12,3.695,0.973,7.619,4.669,8.739l78.745,23.868c3.701,1.112,7.615-0.98,8.737-4.673l32.561-107.439
					C440.036,177.077,437.939,173.156,434.243,172.036z"/>
				<g>
					<g>
						<path fill="#BBBDBF" d="M404.342,285.191c-1.122,3.692-5.037,5.786-8.737,4.673l-78.746-23.867
							c-3.696-1.12-5.79-5.044-4.669-8.739l32.556-107.432c1.12-3.696,5.038-5.791,8.737-4.673l78.747,23.862
							c3.696,1.12,5.793,5.041,4.673,8.737L404.342,285.191z"/>
						<path fill="#F4F4F4" d="M403.335,284.881c-0.954,3.145-4.282,4.925-7.423,3.97l-78.747-23.862
							c-3.14-0.952-4.921-4.283-3.97-7.424l32.556-107.431c0.957-3.147,4.288-4.93,7.427-3.973l78.75,23.861
							c3.142,0.955,4.922,4.283,3.967,7.425L403.335,284.881z"/>
					</g>
					
						<rect x="329.489" y="163.917" transform="matrix(0.9567 0.2911 -0.2911 0.9567 79.1585 -99.7831)" fill="#2C2E3A" width="90.928" height="104.492"/>
					<polygon opacity="0.17" fill="#F2F2F2" points="433.656,179.413 327.053,217.405 346.666,152.945 					"/>
					<circle fill="#FFFFFF" cx="358.03" cy="271.781" r="4.111"/>
					<path fill="#343A54" d="M397.254,164.632l-12.122-3.688c-0.122-0.037-0.191-0.166-0.154-0.288l0.019-0.061
						c0.037-0.122,0.167-0.19,0.289-0.154l12.122,3.688c0.122,0.037,0.191,0.166,0.154,0.289l-0.019,0.06
						C397.505,164.6,397.376,164.669,397.254,164.632z"/>
					<circle fill="#343A54" cx="383.143" cy="160.064" r="0.616"/>
				</g>
			</g>
			<g>
				<path opacity="0.7" fill="#D3D3D3" d="M151.448,217.413l-7.997-0.062c-0.149-0.326-0.472-0.556-0.854-0.557
					c-0.384-0.004-0.71,0.221-0.864,0.543l-5.345-0.041c-0.147-0.325-0.47-0.555-0.852-0.557c-0.381-0.004-0.708,0.221-0.861,0.543
					l-5.344-0.041c-0.147-0.325-0.471-0.553-0.854-0.556c-0.381-0.003-0.708,0.22-0.863,0.542l-5.345-0.041
					c-0.149-0.325-0.47-0.555-0.854-0.56c-0.381,0-0.708,0.225-0.86,0.546l-5.342-0.041c-0.149-0.324-0.472-0.554-0.856-0.555
					c-0.381-0.006-0.708,0.219-0.863,0.541l-5.342-0.041c-0.149-0.324-0.471-0.554-0.852-0.555
					c-0.386-0.006-0.712,0.219-0.866,0.541l-5.339-0.041c-0.148-0.325-0.472-0.556-0.854-0.557
					c-0.382-0.003-0.709,0.221-0.865,0.543l-5.343-0.041c-0.149-0.325-0.472-0.554-0.856-0.558c-0.38-0.002-0.707,0.223-0.861,0.544
					l-5.338-0.041c-0.15-0.324-0.475-0.555-0.857-0.558c-0.382-0.002-0.711,0.222-0.865,0.544l-8.005-0.062
					c-1.46-0.011-2.66,1.174-2.672,2.634L73.788,321.28c-0.014,1.456,1.172,2.661,2.631,2.67l74.201,0.579
					c1.458,0.011,2.664-1.176,2.678-2.632l0.789-101.806C154.103,218.629,152.911,217.428,151.448,217.413z"/>
				<g>
					<g>
						<g>
							<path fill="#414654" d="M151.284,319.883c-0.014,1.457-1.219,2.644-2.677,2.633l-74.202-0.579
								c-1.459-0.009-2.646-1.214-2.631-2.671l0.792-101.808c0.011-1.46,1.212-2.645,2.671-2.634l74.197,0.575
								c1.463,0.015,2.655,1.216,2.639,2.678L151.284,319.883z"/>
							<path fill="#BCBEC0" d="M79.75,317.211c-2.093-0.018-3.796-1.743-3.781-3.839l0.695-89.445
								c0.016-2.096,1.746-3.8,3.844-3.784l63.583,0.494c2.095,0.014,3.797,1.747,3.782,3.842l-0.695,89.444
								c-0.015,2.101-1.742,3.8-3.839,3.785L79.75,317.211z"/>
							<path fill="#D1D3D4" d="M79.756,316.495c-2.095-0.018-3.796-1.744-3.782-3.845l0.697-89.44
								c0.014-2.101,1.747-3.801,3.841-3.786l63.582,0.496c2.098,0.018,3.799,1.747,3.784,3.841l-0.695,89.444
								c-0.015,2.099-1.745,3.801-3.84,3.784L79.756,316.495z"/>
							<path fill="#F1F2F2" d="M76.672,222.49l-0.012,1.585c0.012-2.1,1.743-3.795,3.84-3.782l63.586,0.496
								c2.095,0.013,3.798,1.743,3.783,3.839l0.008-1.582c0.02-2.095-1.684-3.826-3.777-3.842l-63.588-0.49
								C78.419,218.695,76.688,220.4,76.672,222.49z"/>
							<path fill="#FFFFFF" d="M79.764,315.778c-2.095-0.014-3.799-1.744-3.783-3.84l0.698-89.447
								c0.013-2.097,1.743-3.796,3.84-3.778l63.583,0.49c2.097,0.018,3.801,1.747,3.781,3.842l-0.694,89.447
								c-0.016,2.096-1.745,3.796-3.84,3.782L79.764,315.778z"/>
							<g>
								<g>
									<path fill="#808285" d="M140.531,221.62c-0.677-0.004-1.23,0.534-1.237,1.209c-0.003,0.676,0.54,1.23,1.219,1.237
										c0.678,0.008,1.217-0.542,1.225-1.215C141.745,222.173,141.208,221.626,140.531,221.62z"/>
									
										<linearGradient id="SVGID_1_" gradientUnits="userSpaceOnUse" x1="6800.6611" y1="1784.2432" x2="6792.4067" y2="1784.2432" gradientTransform="matrix(0.0077 -1 -1 -0.0077 1872.4595 7029.1797)">
										<stop  offset="0" style="stop-color:#DCDDDE"/>
										<stop  offset="1" style="stop-color:#A7A9AC"/>
									</linearGradient>
									<path fill="url(#SVGID_1_)" d="M140.583,214.781c-0.528-0.006-0.956,0.416-0.961,0.938l-0.053,6.8
										c-0.001,0.522,0.418,0.951,0.948,0.957l0,0c0.525-0.001,0.956-0.42,0.958-0.943l0.054-6.797
										C141.53,215.21,141.109,214.782,140.583,214.781L140.583,214.781z"/>
								</g>
								<g>
									<path fill="#808285" d="M133.47,221.565c-0.678-0.005-1.23,0.535-1.236,1.213c-0.001,0.675,0.538,1.228,1.215,1.233
										c0.678,0.005,1.229-0.542,1.235-1.216C134.691,222.116,134.148,221.569,133.47,221.565z"/>
									
										<linearGradient id="SVGID_2_" gradientUnits="userSpaceOnUse" x1="6800.6611" y1="1791.3037" x2="6792.4106" y2="1791.3037" gradientTransform="matrix(0.0077 -1 -1 -0.0077 1872.4595 7029.1797)">
										<stop  offset="0" style="stop-color:#DCDDDE"/>
										<stop  offset="1" style="stop-color:#A7A9AC"/>
									</linearGradient>
									<path fill="url(#SVGID_2_)" d="M133.522,214.727c-0.524-0.006-0.956,0.416-0.956,0.94l-0.052,6.799
										c-0.006,0.523,0.417,0.952,0.941,0.952l0,0c0.526,0.006,0.951-0.414,0.956-0.94l0.05-6.797
										C134.471,215.156,134.047,214.729,133.522,214.727L133.522,214.727z"/>
								</g>
								<g>
									<path fill="#808285" d="M126.409,221.511c-0.678-0.007-1.228,0.534-1.234,1.212c-0.001,0.672,0.541,1.228,1.218,1.234
										c0.676,0.006,1.223-0.54,1.229-1.213C127.629,222.069,127.087,221.515,126.409,221.511z"/>
									
										<linearGradient id="SVGID_3_" gradientUnits="userSpaceOnUse" x1="6800.6602" y1="1798.3643" x2="6792.4097" y2="1798.3643" gradientTransform="matrix(0.0077 -1 -1 -0.0077 1872.4595 7029.1797)">
										<stop  offset="0" style="stop-color:#DCDDDE"/>
										<stop  offset="1" style="stop-color:#A7A9AC"/>
									</linearGradient>
									<path fill="url(#SVGID_3_)" d="M126.463,214.673c-0.525-0.004-0.957,0.413-0.959,0.938l-0.055,6.8
										c-0.001,0.521,0.423,0.947,0.951,0.954l0,0c0.521,0.004,0.949-0.418,0.954-0.938l0.051-6.801
										C127.412,215.099,126.99,214.677,126.463,214.673L126.463,214.673z"/>
								</g>
								<g>
									<path fill="#808285" d="M119.351,221.455c-0.68-0.006-1.235,0.537-1.236,1.212c-0.005,0.674,0.536,1.23,1.214,1.236
										c0.679,0.003,1.231-0.544,1.234-1.219C120.57,222.01,120.026,221.458,119.351,221.455z"/>
									
										<linearGradient id="SVGID_4_" gradientUnits="userSpaceOnUse" x1="6800.6641" y1="1805.4209" x2="6792.4087" y2="1805.4209" gradientTransform="matrix(0.0077 -1 -1 -0.0077 1872.4595 7029.1797)">
										<stop  offset="0" style="stop-color:#DCDDDE"/>
										<stop  offset="1" style="stop-color:#A7A9AC"/>
									</linearGradient>
									<path fill="url(#SVGID_4_)" d="M119.402,214.614c-0.524,0-0.955,0.418-0.954,0.941l-0.053,6.8
										c-0.005,0.522,0.417,0.952,0.94,0.956l0,0c0.526,0.005,0.955-0.42,0.959-0.943l0.054-6.797
										C120.348,215.048,119.93,214.62,119.402,214.614L119.402,214.614z"/>
								</g>
								<g>
									<path fill="#808285" d="M112.287,221.398c-0.668-0.004-1.218,0.536-1.229,1.213c-0.003,0.675,0.543,1.231,1.215,1.237
										c0.681,0.006,1.226-0.544,1.231-1.216C113.506,221.953,112.968,221.402,112.287,221.398z"/>
									
										<linearGradient id="SVGID_5_" gradientUnits="userSpaceOnUse" x1="6800.6592" y1="1812.4805" x2="6792.4116" y2="1812.4805" gradientTransform="matrix(0.0077 -1 -1 -0.0077 1872.4595 7029.1797)">
										<stop  offset="0" style="stop-color:#DCDDDE"/>
										<stop  offset="1" style="stop-color:#A7A9AC"/>
									</linearGradient>
									<path fill="url(#SVGID_5_)" d="M112.343,214.564c-0.523-0.008-0.955,0.414-0.959,0.935l-0.052,6.801
										c-0.004,0.524,0.418,0.951,0.941,0.954l0,0c0.529,0.003,0.959-0.416,0.965-0.938l0.051-6.8
										C113.293,214.992,112.871,214.566,112.343,214.564L112.343,214.564z"/>
								</g>
								<g>
									<path fill="#808285" d="M105.234,221.346c-0.679-0.003-1.23,0.533-1.236,1.211c-0.003,0.678,0.539,1.232,1.217,1.234
										c0.674,0.005,1.222-0.539,1.229-1.215C106.45,221.898,105.912,221.352,105.234,221.346z"/>
									
										<linearGradient id="SVGID_6_" gradientUnits="userSpaceOnUse" x1="6800.6592" y1="1819.542" x2="6792.4106" y2="1819.542" gradientTransform="matrix(0.0077 -1 -1 -0.0077 1872.4595 7029.1797)">
										<stop  offset="0" style="stop-color:#DCDDDE"/>
										<stop  offset="1" style="stop-color:#A7A9AC"/>
									</linearGradient>
									<path fill="url(#SVGID_6_)" d="M105.287,214.51c-0.531-0.008-0.958,0.412-0.963,0.938l-0.054,6.797
										c-0.001,0.522,0.418,0.949,0.95,0.957l0,0c0.525,0.004,0.955-0.418,0.955-0.941l0.055-6.801
										C106.23,214.938,105.811,214.512,105.287,214.51L105.287,214.51z"/>
								</g>
								<g>
									<path fill="#808285" d="M98.175,221.292c-0.678-0.005-1.229,0.533-1.234,1.212c-0.006,0.674,0.538,1.227,1.214,1.234
										c0.681,0.004,1.224-0.54,1.235-1.216C99.39,221.847,98.853,221.296,98.175,221.292z"/>
									
										<linearGradient id="SVGID_7_" gradientUnits="userSpaceOnUse" x1="6800.6621" y1="1826.6006" x2="6792.4136" y2="1826.6006" gradientTransform="matrix(0.0077 -1 -1 -0.0077 1872.4595 7029.1797)">
										<stop  offset="0" style="stop-color:#DCDDDE"/>
										<stop  offset="1" style="stop-color:#A7A9AC"/>
									</linearGradient>
									<path fill="url(#SVGID_7_)" d="M98.227,214.453c-0.524-0.005-0.957,0.415-0.962,0.938l-0.055,6.799
										c-0.002,0.525,0.426,0.952,0.95,0.954l0,0c0.527,0.008,0.953-0.414,0.961-0.938l0.051-6.8
										C99.176,214.883,98.753,214.454,98.227,214.453L98.227,214.453z"/>
								</g>
								<g>
									<path fill="#808285" d="M91.11,221.235c-0.678-0.009-1.225,0.538-1.229,1.213c-0.007,0.675,0.536,1.229,1.213,1.231
										c0.676,0.01,1.226-0.538,1.232-1.213C92.332,221.791,91.787,221.241,91.11,221.235z"/>
									
										<linearGradient id="SVGID_8_" gradientUnits="userSpaceOnUse" x1="6800.6631" y1="1833.6602" x2="6792.4077" y2="1833.6602" gradientTransform="matrix(0.0077 -1 -1 -0.0077 1872.4595 7029.1797)">
										<stop  offset="0" style="stop-color:#DCDDDE"/>
										<stop  offset="1" style="stop-color:#A7A9AC"/>
									</linearGradient>
									<path fill="url(#SVGID_8_)" d="M91.163,214.397c-0.524-0.002-0.954,0.416-0.958,0.939l-0.048,6.798
										c-0.008,0.523,0.414,0.951,0.94,0.96l0,0c0.528-0.002,0.951-0.422,0.957-0.946l0.057-6.798
										C92.111,214.826,91.691,214.403,91.163,214.397L91.163,214.397z"/>
								</g>
								<g>
									<path fill="#808285" d="M84.055,221.179c-0.679-0.003-1.225,0.536-1.229,1.213c-0.008,0.677,0.534,1.233,1.209,1.236
										c0.682,0.006,1.225-0.542,1.231-1.216C85.272,221.732,84.731,221.184,84.055,221.179z"/>
									
										<linearGradient id="SVGID_9_" gradientUnits="userSpaceOnUse" x1="6800.6641" y1="1840.7178" x2="6792.4116" y2="1840.7178" gradientTransform="matrix(0.0077 -1 -1 -0.0077 1872.4595 7029.1797)">
										<stop  offset="0" style="stop-color:#DCDDDE"/>
										<stop  offset="1" style="stop-color:#A7A9AC"/>
									</linearGradient>
									<path fill="url(#SVGID_9_)" d="M84.106,214.342c-0.525-0.002-0.958,0.415-0.959,0.939l-0.053,6.8
										c-0.006,0.523,0.42,0.954,0.944,0.956l0,0c0.53,0.002,0.956-0.416,0.963-0.943l0.054-6.798
										C85.059,214.774,84.633,214.348,84.106,214.342L84.106,214.342z"/>
								</g>
							</g>
						</g>
					</g>
				</g>
			</g>
			<g>
				<path opacity="0.7" fill="#D3D3D3" d="M507.629,167.608l-2.163-0.25l0.094-0.758l-6.844-0.853l-0.191,1.54
					c-22.146-1.035-35.813,12.032-39.644,16.279c-0.009,0.008-0.018,0.014-0.026,0.021c-0.6,0.511-1.168,1.041-1.718,1.583
					c-0.565,0.421-1.13,0.845-1.675,1.31c-11.302,9.637-13.902,25.211-5.796,34.717c2.03,2.382,4.544,4.159,7.348,5.335
					c7.643,4.47,18.227,3.787,27.022-1.99c-3.479,3.779-7.944,7.394-13.664,10.315l-1.541-3.436l-10.297,4.622l-1.855-4.276
					l-22.009,9.551l0.73,1.685l-3.774,1.639l0.699,1.609l-3.222,1.398l-2.052,0.89l0,0l-0.304,0.132
					c-0.352,0.152-0.516,0.566-0.362,0.918l0.263,0.606c0.153,0.353,0.566,0.516,0.919,0.362l0.303-0.131l0,0l2.471-1.072l0,0
					l2.803-1.216l2.794,6.438l-5.576,2.42c-0.353,0.153-0.516,0.566-0.362,0.918l0.263,0.606c0.153,0.353,0.566,0.516,0.919,0.363
					l0.303-0.132l0,0l2.471-1.072l0,0l2.803-1.216l0.698,1.609l3.774-1.638l0.771,1.776l22.009-9.551l-2.065-4.759l10.395-4.666
					l-1.14-2.539c10.358-5.266,16.784-12.729,20.732-19.483c2.946-3.881,4.81-8.246,5.51-12.6
					c2.493-7.536,1.515-15.512-3.391-21.265c-6.036-7.079-16.332-8.818-25.864-5.271c6.562-4.608,16.7-9.372,30.088-8.787
					l-0.171,1.375l6.844,0.852l0.078-0.625l2.195,0.253c0.635,0.073,1.215-0.387,1.288-1.021l0.142-1.23
					C508.724,168.262,508.265,167.682,507.629,167.608z M453.581,221.1c-2.154-2.526-3.462-5.535-3.981-8.748
					c0.78,2.147,1.928,4.159,3.459,5.954c4.935,5.787,12.718,7.99,20.603,6.671c-5.427,1.75-11.017,1.692-15.709-0.23
					C456.328,223.782,454.844,222.581,453.581,221.1z M484.862,220.961c0.599-0.51,1.167-1.041,1.717-1.583
					c0.565-0.421,1.13-0.845,1.676-1.31c0.556-0.474,1.083-0.966,1.597-1.467c-1.146,1.43-2.449,2.787-3.913,4.035
					c-2.781,2.372-5.853,4.108-8.998,5.244C479.709,224.687,482.396,223.064,484.862,220.961z M495.689,202.413
					c-0.217,0.989-0.56,2.351-1.088,3.985c-0.19,0.426-0.392,0.85-0.606,1.271c1.435-4.252,1.763-8.646,0.903-12.709
					C495.627,197.321,495.886,199.846,495.689,202.413z M489.126,187.551c6.97,8.174,5.133,21.367-3.885,30.321
					c-10.279,7.564-23.658,7.327-30.65-0.873c-3.597-4.218-4.843-9.772-3.974-15.392c1.53-4.515,4.41-8.869,8.534-12.386
					c7.825-6.672,17.922-8.465,25.604-5.316C486.379,184.868,487.862,186.07,489.126,187.551z M457.845,187.689
					c-0.556,0.474-1.084,0.966-1.598,1.467c0.687-0.855,1.428-1.684,2.228-2.478c0.29-0.214,0.584-0.413,0.879-0.614l0.028,0.021
					c0.005-0.006,0.027-0.035,0.063-0.08c2.026-1.371,4.152-2.452,6.32-3.235C462.998,183.965,460.312,185.586,457.845,187.689z
					 M449.721,196.882c-0.476,1.409-0.834,2.834-1.062,4.259c-1.39,4.201-1.698,8.537-0.85,12.55
					C446.19,208.447,446.907,202.397,449.721,196.882z M492.519,184.658c2.154,2.526,3.462,5.535,3.981,8.748
					c-0.78-2.147-1.929-4.159-3.459-5.954c-2.03-2.382-4.544-4.159-7.349-5.335c-4.51-2.638-10.044-3.479-15.637-2.543
					C478.47,176.859,487.284,178.52,492.519,184.658z"/>
				<g>
					<g>
						<g>
							<g>
								<path fill="#FCFCFC" d="M439.322,251.852l0.267,0.615c0.152,0.35-0.01,0.76-0.359,0.912l-8.054,3.494
									c-0.35,0.152-0.76-0.01-0.912-0.359l-0.267-0.615c-0.152-0.351,0.01-0.761,0.36-0.912l8.053-3.495
									C438.76,251.34,439.171,251.502,439.322,251.852z"/>
								<path fill="#FCFCFC" d="M435.709,243.525l0.268,0.615c0.151,0.35-0.011,0.76-0.36,0.912l-8.054,3.494
									c-0.35,0.152-0.76-0.01-0.912-0.359l-0.267-0.615c-0.151-0.351,0.01-0.761,0.36-0.912l8.053-3.495
									C435.147,243.014,435.558,243.176,435.709,243.525z"/>
							</g>
							<path fill="#EAEAEA" d="M433.135,253.78l-2.471,1.072c-0.519,0.226-0.759,0.834-0.533,1.354
								c0.225,0.519,0.834,0.759,1.353,0.534l2.471-1.072L433.135,253.78z"/>
							<path fill="#EAEAEA" d="M429.521,245.454l-2.47,1.072c-0.52,0.226-0.76,0.834-0.534,1.354
								c0.225,0.519,0.834,0.759,1.353,0.534l2.471-1.072L429.521,245.454z"/>
						</g>
						
							<rect x="430.771" y="243.93" transform="matrix(-0.3981 -0.9174 0.9174 -0.3981 385.1562 748.3328)" fill="#EAEAEA" width="14.644" height="7.745"/>
						
							<rect x="440.132" y="230.981" transform="matrix(-0.3981 -0.9174 0.9174 -0.3981 405.3116 751.903)" fill="#F4F4F4" width="18.417" height="23.991"/>
					</g>
					<g>
						<g>
							<path fill="#F4F4F4" d="M449.666,219.185c-8.106-9.506-5.506-25.08,5.796-34.717c11.301-9.637,27.091-9.743,35.196-0.237
								s5.506,25.08-5.796,34.717S457.771,228.69,449.666,219.185z M489.126,185.537c-7.386-8.661-21.901-8.453-32.357,0.463
								c-10.457,8.917-12.956,23.217-5.57,31.878c7.385,8.661,21.9,8.453,32.357-0.463
								C494.013,208.498,496.511,194.198,489.126,185.537z"/>
						</g>
						<g>
							<path fill="#F4F4F4" d="M453.059,216.292c-8.106-9.506-5.506-25.08,5.796-34.717c11.301-9.638,27.091-9.743,35.196-0.237
								s5.506,25.08-5.796,34.717S461.164,225.798,453.059,216.292z M492.519,182.645c-7.386-8.661-21.901-8.454-32.357,0.463
								c-10.457,8.916-12.956,23.217-5.57,31.878c7.385,8.661,21.9,8.453,32.357-0.463
								C497.405,205.605,499.903,191.306,492.519,182.645z"/>
						</g>
						<g>
							<path fill="#F4F4F4" d="M452.049,220.393c-8.105-9.506-5.506-25.08,5.796-34.717s27.091-9.743,35.196-0.237
								s5.506,25.08-5.796,34.717S460.154,229.898,452.049,220.393z M491.509,186.745c-7.386-8.661-21.9-8.454-32.357,0.463
								s-12.956,23.217-5.57,31.878s21.9,8.453,32.357-0.463C496.396,209.706,498.894,195.406,491.509,186.745z"/>
						</g>
					</g>
					<g>
						<path fill="#F4F4F4" d="M457.772,182.86c0.144-0.192,14.742-19.176,41.482-17.559l-0.121,2.01
							c-25.629-1.549-39.614,16.576-39.752,16.76L457.772,182.86z"/>
					</g>
					<g>
						<path fill="#F4F4F4" d="M498.015,198.896c-0.028,0.238-3.171,23.979-27.133,35.957l-0.901-1.801
							c22.967-11.481,26.007-34.172,26.034-34.399L498.015,198.896z"/>
					</g>
					<g>
						
							<rect x="460.867" y="229.798" transform="matrix(0.4096 0.9123 -0.9123 0.4096 489.6879 -285.15)" fill="#F4F4F4" width="8.566" height="11.916"/>
						
							<rect x="464.418" y="234.739" transform="matrix(0.41 0.9121 -0.9121 0.41 489.4818 -285.1592)" fill="#A6A8AB" width="1.463" height="2.034"/>
					</g>
					<g>
						<g>
							<path fill="#A6A8AB" d="M502.646,167.444l0.144-1.246c0.073-0.631,0.649-1.088,1.28-1.015l3.566,0.412
								c0.631,0.072,1.088,0.648,1.015,1.279l-0.144,1.246c-0.072,0.631-0.648,1.087-1.279,1.015l-3.567-0.412
								C503.03,168.651,502.573,168.075,502.646,167.444z"/>
							<path fill="#F4F4F4" d="M505.902,168.025l0.188-1.627c0.035-0.304,0.313-0.524,0.617-0.489l0.601,0.069
								c0.305,0.035,0.524,0.312,0.489,0.617l-0.188,1.627c-0.035,0.304-0.312,0.524-0.617,0.489l-0.601-0.069
								C506.088,168.607,505.867,168.33,505.902,168.025z"/>
							<g>
								<g>
									<path fill="#EFCE73" d="M506.555,166.486l0.005-0.042c0.003-0.021,0.022-0.037,0.044-0.035l0.798,0.093
										c0.021,0.002,0.037,0.021,0.034,0.043l-0.005,0.043c-0.002,0.021-0.022,0.037-0.044,0.034l-0.798-0.092
										C506.567,166.528,506.552,166.508,506.555,166.486z"/>
									<path fill="#EFCE73" d="M506.521,166.785L506.521,166.785c0.003-0.033,0.034-0.057,0.067-0.053l0.755,0.087
										c0.033,0.004,0.058,0.034,0.054,0.067l0,0c-0.004,0.033-0.034,0.058-0.067,0.054l-0.756-0.087
										C506.54,166.85,506.517,166.818,506.521,166.785z"/>
									<path fill="#EFCE73" d="M506.483,167.105L506.483,167.105c0.004-0.033,0.034-0.057,0.067-0.053l0.755,0.087
										c0.033,0.004,0.058,0.034,0.054,0.067l0,0c-0.004,0.033-0.034,0.058-0.067,0.054l-0.756-0.087
										C506.503,167.17,506.479,167.139,506.483,167.105z"/>
									<path fill="#EFCE73" d="M506.446,167.426L506.446,167.426c0.004-0.033,0.034-0.057,0.067-0.053l0.755,0.087
										c0.033,0.004,0.058,0.034,0.054,0.067l0,0c-0.004,0.033-0.034,0.058-0.067,0.054l-0.755-0.088
										C506.467,167.49,506.442,167.459,506.446,167.426z"/>
									<path fill="#EFCE73" d="M506.409,167.746L506.409,167.746c0.004-0.033,0.034-0.057,0.067-0.053l0.755,0.087
										c0.034,0.004,0.058,0.034,0.054,0.067l0,0c-0.004,0.033-0.034,0.058-0.067,0.054l-0.755-0.088
										C506.43,167.811,506.405,167.779,506.409,167.746z"/>
									<path fill="#EFCE73" d="M506.37,168.088l0.005-0.042c0.002-0.022,0.021-0.037,0.043-0.035l0.798,0.092
										c0.022,0.003,0.037,0.022,0.035,0.044l-0.005,0.043c-0.003,0.021-0.022,0.037-0.044,0.034l-0.798-0.092
										C506.383,168.129,506.367,168.109,506.37,168.088z"/>
								</g>
							</g>
						</g>
						<g>
							
								<rect x="499.353" y="163.172" transform="matrix(-0.1235 0.9923 -0.9923 -0.1235 729.153 -310.7918)" fill="#F4F4F4" width="4.958" height="6.897"/>
							
								<rect x="501.408" y="166.032" transform="matrix(-0.1235 0.9923 -0.9923 -0.1235 729.1368 -310.7992)" fill="#A6A8AB" width="0.846" height="1.177"/>
						</g>
					</g>
				</g>
			</g>
			<g>
				<path opacity="0.7" fill="#D3D3D3" d="M236.436,228.001l-44.822,29.17c-3,1.952-3.852,5.98-1.9,8.979l41.193,63.298
					c1.952,3,5.981,3.853,8.981,1.9l44.822-29.17c2.999-1.952,3.852-5.98,1.899-8.98L245.416,229.9
					C243.464,226.901,239.435,226.049,236.436,228.001z"/>
				<g>
					<g>
						<g>
							<path fill="#414654" d="M281.374,300.745l-44.821,29.17c-2.528,1.645-5.942,0.923-7.587-1.605l-41.193-63.297
								c-1.645-2.528-0.923-5.942,1.605-7.588l44.822-29.169c2.528-1.646,5.942-0.923,7.587,1.604l41.193,63.298
								C284.625,295.687,283.902,299.101,281.374,300.745z"/>
						</g>
						<g>
							<path fill="#616775" d="M281.924,301.59l-44.822,29.169c-3,1.952-7.028,1.101-8.981-1.899l-41.193-63.298
								c-1.952-2.999-1.1-7.028,1.9-8.98l44.822-29.169c2.999-1.952,7.028-1.101,8.979,1.899l41.193,63.298
								C285.775,295.609,284.923,299.638,281.924,301.59z M189.926,258.27c-2.069,1.347-2.657,4.125-1.311,6.193l41.193,63.298
								c1.347,2.069,4.125,2.657,6.195,1.311l44.822-29.17c2.068-1.347,2.656-4.124,1.31-6.194l-41.193-63.297
								c-1.346-2.069-4.125-2.657-6.193-1.311L189.926,258.27z"/>
						</g>
					</g>
					<g>
						<g>
							<path fill="#D8D8D8" d="M216.714,285.139l-6.225,4.052c-0.861,0.561-2.025,0.314-2.585-0.547l-1.373-2.11
								c-0.561-0.861-0.314-2.024,0.547-2.585l6.225-4.052c0.861-0.561,2.025-0.314,2.586,0.547l1.373,2.11
								C217.822,283.415,217.576,284.578,216.714,285.139z"/>
							<path fill="#D8D8D8" d="M229.374,276.9l-6.225,4.052c-0.861,0.561-2.025,0.314-2.586-0.548l-1.373-2.109
								c-0.561-0.861-0.314-2.025,0.547-2.586l6.225-4.051c0.861-0.561,2.025-0.314,2.585,0.547l1.373,2.109
								C230.481,275.176,230.235,276.34,229.374,276.9z"/>
							<path fill="#D8D8D8" d="M242.033,268.662l-6.225,4.051c-0.862,0.561-2.025,0.314-2.586-0.547l-1.373-2.109
								c-0.561-0.862-0.314-2.025,0.547-2.586l6.225-4.052c0.862-0.561,2.025-0.314,2.586,0.547l1.373,2.11
								C243.141,266.938,242.895,268.102,242.033,268.662z"/>
							<path fill="#369B1E" d="M254.693,260.423l-6.226,4.052c-0.861,0.561-2.025,0.314-2.585-0.547l-1.373-2.11
								c-0.561-0.861-0.314-2.024,0.547-2.586l6.225-4.051c0.861-0.561,2.025-0.314,2.586,0.547l1.373,2.11
								C255.8,258.699,255.554,259.862,254.693,260.423z"/>
						</g>
						<g>
							<path fill="#F4F4F4" d="M222.516,294.054l-6.225,4.051c-0.862,0.561-2.025,0.314-2.586-0.547l-1.373-2.109
								c-0.561-0.862-0.314-2.025,0.547-2.586l6.225-4.052c0.861-0.561,2.025-0.314,2.586,0.547l1.373,2.11
								C223.623,292.329,223.377,293.493,222.516,294.054z"/>
							<path fill="#F4F4F4" d="M235.175,285.814l-6.225,4.052c-0.861,0.561-2.025,0.314-2.585-0.547l-1.373-2.11
								c-0.561-0.861-0.315-2.024,0.547-2.586l6.225-4.051c0.861-0.561,2.025-0.314,2.586,0.547l1.373,2.11
								C236.283,284.091,236.037,285.254,235.175,285.814z"/>
							<path fill="#F4F4F4" d="M247.834,277.576l-6.225,4.051c-0.861,0.562-2.025,0.315-2.586-0.547l-1.373-2.109
								c-0.561-0.861-0.314-2.025,0.547-2.586l6.226-4.051c0.861-0.561,2.025-0.314,2.585,0.547l1.373,2.109
								C248.942,275.852,248.696,277.016,247.834,277.576z"/>
							<path fill="#F95353" d="M260.494,269.338l-6.225,4.051c-0.862,0.561-2.025,0.314-2.586-0.547l-1.373-2.109
								c-0.561-0.862-0.314-2.025,0.547-2.586l6.225-4.052c0.862-0.561,2.025-0.314,2.586,0.547l1.373,2.11
								C261.602,267.613,261.355,268.777,260.494,269.338z"/>
						</g>
						<g>
							<path fill="#F4F4F4" d="M228.317,302.968l-6.225,4.052c-0.862,0.561-2.025,0.314-2.586-0.547l-1.373-2.11
								c-0.561-0.861-0.314-2.025,0.547-2.586l6.225-4.051c0.862-0.561,2.025-0.314,2.586,0.547l1.373,2.109
								C229.424,301.244,229.178,302.407,228.317,302.968z"/>
							<path fill="#F4F4F4" d="M240.977,294.729l-6.226,4.051c-0.861,0.561-2.025,0.314-2.585-0.547l-1.373-2.109
								c-0.561-0.862-0.314-2.025,0.547-2.586l6.225-4.052c0.861-0.561,2.025-0.314,2.586,0.547l1.373,2.11
								C242.084,293.005,241.838,294.169,240.977,294.729z"/>
							<path fill="#F4F4F4" d="M253.636,286.49l-6.225,4.052c-0.861,0.561-2.025,0.314-2.585-0.547l-1.374-2.11
								c-0.561-0.861-0.314-2.024,0.547-2.586l6.225-4.051c0.861-0.561,2.025-0.314,2.585,0.547l1.374,2.11
								C254.744,284.767,254.498,285.93,253.636,286.49z"/>
							<path fill="#F4F4F4" d="M266.295,278.252l-6.225,4.052c-0.861,0.561-2.025,0.314-2.586-0.548l-1.373-2.109
								c-0.561-0.861-0.314-2.025,0.547-2.586l6.226-4.051c0.861-0.562,2.025-0.314,2.585,0.547l1.373,2.109
								C267.403,276.527,267.157,277.691,266.295,278.252z"/>
						</g>
						<g>
							<path fill="#F4F4F4" d="M234.118,311.883l-6.225,4.051c-0.861,0.561-2.025,0.314-2.585-0.547l-1.374-2.11
								c-0.561-0.861-0.314-2.024,0.547-2.585l6.225-4.052c0.861-0.561,2.025-0.314,2.585,0.547l1.374,2.11
								C235.226,310.158,234.98,311.322,234.118,311.883z"/>
							<path fill="#F4F4F4" d="M246.778,303.644l-6.225,4.052c-0.862,0.561-2.025,0.314-2.586-0.547l-1.373-2.11
								c-0.561-0.861-0.314-2.025,0.547-2.586l6.225-4.051c0.862-0.561,2.025-0.314,2.586,0.547l1.373,2.109
								C247.885,301.92,247.639,303.083,246.778,303.644z"/>
							<path fill="#F4F4F4" d="M259.438,295.405l-6.225,4.051c-0.862,0.561-2.025,0.314-2.586-0.547l-1.373-2.109
								c-0.561-0.862-0.314-2.025,0.547-2.586l6.225-4.052c0.862-0.561,2.025-0.314,2.586,0.547l1.373,2.11
								C260.545,293.681,260.299,294.845,259.438,295.405z"/>
							<path fill="#F4F4F4" d="M272.097,287.166l-6.225,4.052c-0.861,0.561-2.025,0.314-2.585-0.547l-1.374-2.11
								c-0.561-0.861-0.314-2.025,0.547-2.586l6.225-4.051c0.861-0.561,2.025-0.314,2.585,0.547l1.373,2.11
								C273.205,285.442,272.958,286.605,272.097,287.166z"/>
						</g>
						<g>
							<path fill="#F4F4F4" d="M239.919,320.797l-6.225,4.051c-0.861,0.561-2.025,0.314-2.585-0.547l-1.373-2.109
								c-0.561-0.861-0.315-2.025,0.547-2.586l6.225-4.052c0.861-0.561,2.025-0.314,2.585,0.548l1.374,2.109
								C241.027,319.072,240.781,320.236,239.919,320.797z"/>
							<path fill="#F4F4F4" d="M252.579,312.559l-6.225,4.051c-0.861,0.561-2.025,0.314-2.586-0.547l-1.373-2.11
								c-0.561-0.861-0.314-2.024,0.547-2.585l6.225-4.052c0.861-0.561,2.025-0.314,2.585,0.547l1.373,2.11
								C253.687,310.834,253.441,311.997,252.579,312.559z"/>
							<path fill="#F4F4F4" d="M265.239,304.319l-6.225,4.052c-0.862,0.561-2.025,0.314-2.586-0.547l-1.373-2.11
								c-0.561-0.861-0.314-2.025,0.547-2.586l6.225-4.051c0.862-0.561,2.025-0.314,2.586,0.547l1.373,2.109
								C266.346,302.596,266.1,303.759,265.239,304.319z"/>
							<path fill="#F4F4F4" d="M277.898,296.081l-6.226,4.051c-0.861,0.561-2.025,0.314-2.585-0.547l-1.373-2.109
								c-0.561-0.862-0.314-2.025,0.547-2.586l6.225-4.052c0.861-0.561,2.025-0.314,2.586,0.547l1.373,2.11
								C279.006,294.356,278.76,295.521,277.898,296.081z"/>
						</g>
					</g>
					<g>
						<path fill="#2C2E3A" d="M247.385,251.035l-42.52,27.672c-0.979,0.638-2.303,0.357-2.94-0.622l-7.867-12.089
							c-0.638-0.979-0.358-2.303,0.622-2.94l42.52-27.672c0.98-0.638,2.303-0.357,2.941,0.622l7.867,12.089
							C248.645,249.074,248.364,250.397,247.385,251.035z"/>
						<path fill="#616775" d="M247.647,251.466l-42.495,27.655c-1.222,0.795-2.862,0.447-3.657-0.774l-7.852-12.064
							c-0.794-1.221-0.448-2.862,0.774-3.657l42.495-27.655c1.221-0.794,2.862-0.447,3.657,0.774l7.851,12.064
							C249.215,249.029,248.868,250.671,247.647,251.466z M194.966,263.47c-0.757,0.492-0.971,1.507-0.479,2.264l7.851,12.064
							c0.493,0.757,1.508,0.972,2.264,0.479l42.495-27.655c0.757-0.492,0.971-1.507,0.479-2.264l-7.852-12.064
							c-0.492-0.757-1.507-0.971-2.264-0.479L194.966,263.47z"/>
					</g>
				</g>
			</g>
			<g>
				<g>
					<polygon fill="#EFD5A9" points="256.801,225.657 250.746,215.01 255.296,226.667 					"/>
					<polygon fill="#D6B59D" points="250.746,215.01 258.315,224.65 256.801,225.657 					"/>
					<g>
						<polygon fill="#FEC873" points="303.935,296.189 302.421,297.198 255.296,226.667 256.801,225.657 						"/>
						<polygon fill="#EFB065" points="305.438,295.184 303.935,296.189 256.801,225.657 258.315,224.65 						"/>
						<polygon fill="#E39B47" points="306.949,294.176 305.438,295.184 258.315,224.65 259.822,223.637 						"/>
					</g>
					<polygon fill="#C3A386" points="250.746,215.01 259.822,223.637 258.315,224.65 					"/>
					<path fill="#5D5F63" d="M252.706,217.507c-0.042,0.045-0.095,0.073-0.145,0.104c-0.084,0.06-0.163,0.106-0.256,0.146
						c-0.137,0.062-0.281,0.122-0.417,0.159l-1.139-2.904l2.283,2.171C252.939,217.307,252.828,217.411,252.706,217.507z"/>
				</g>
			</g>
			<g>
				<linearGradient id="SVGID_10_" gradientUnits="userSpaceOnUse" x1="239.0151" y1="101.249" x2="88.5558" y2="268.331">
					<stop  offset="0" style="stop-color:#E0E0E0"/>
					<stop  offset="1" style="stop-color:#E0E0E0;stop-opacity:0"/>
				</linearGradient>
				<polygon fill="url(#SVGID_10_)" points="-91.439,353.248 86.789,175.02 330.182,114.973 86.448,358.706 				"/>
				<g>
					<path fill="#BDBEC0" d="M155.349,154.401c3.245,14.306,31.417,32.254,59.601,25.86c28.303-6.421,45.832-34.737,42.586-49.045
						c-3.244-14.301-28.724-20.711-57.027-14.291C172.325,123.319,152.104,140.102,155.349,154.401z"/>
					<path fill="#4B72AA" d="M155.549,153.606c3.247,14.309,31.214,31.38,59.403,24.985c28.298-6.42,46.031-33.86,42.786-48.17
						c-3.245-14.301-28.725-20.717-57.024-14.297C172.525,122.521,152.304,139.305,155.549,153.606z"/>
					<path fill="#2C2E3A" d="M155.801,152.613c3.247,14.305,31.417,32.255,59.602,25.859c28.302-6.419,45.83-34.736,42.585-49.043
						c-3.245-14.303-28.727-20.721-57.028-14.299C172.776,121.524,152.556,138.308,155.801,152.613z"/>
					<path fill="#2C2E3A" d="M19.82,111.205c0.423,1.867,2.763,2.919,5.231,2.36l328.768-74.586c2.471-0.561,4.131-2.52,3.708-4.386
						l-1.59-7.013c-0.422-1.857-2.769-2.916-5.238-2.354L21.931,99.813c-2.467,0.56-4.124,2.524-3.702,4.382L19.82,111.205z"/>
					<path fill="#BDBEC0" d="M332.263,117.635c-0.442,1.416-2.259,2.886-4.062,3.295L88.186,175.38
						c-1.792,0.407-4.126-0.121-5.222-1.188l-6.627-6.488l259.047-58.771L332.263,117.635z"/>
					<path fill="#414654" d="M22.354,110.043l332.244-75.375c2.497-0.567,3.849,1.099,3.036,3.676l-21.419,69.146l-0.039,0.104
						l-0.044,0.011l-3.162,8.716c-0.447,1.42-2.277,2.89-4.095,3.303l-241.85,54.866c-1.809,0.411-4.161-0.111-5.261-1.181
						l-6.669-6.484l0.054-0.013l-0.081-0.079l-53.594-52.126C19.48,112.666,19.86,110.607,22.354,110.043z"/>
					<path fill="#FFFFFF" d="M353.042,39.77l-24.109,73.711l-244.521,55.33l-56.277-55.088
						C27.842,113.435,353.042,39.77,353.042,39.77z"/>
					<polygon fill="#F4F4F4" points="353.926,39.455 330.417,114.442 83.755,169.104 27.909,113.514 					"/>
					<polygon fill="#F9F9F9" points="353.926,39.455 204.678,141.597 330.417,114.442 					"/>
				</g>
			</g>
		</g>
	</g>
	<g opacity="0.2">
		<g enable-background="new    ">
			<g>
				<polygon fill="#353535" points="239.237,122.119 239.851,130.071 320.17,111.41 322.368,102.806 				"/>
			</g>
			<g>
				<polygon fill="#353535" points="148.296,137.171 149.149,138.892 323.497,98.386 324.018,96.346 				"/>
			</g>
			<g>
				<polygon fill="#353535" points="145.287,131.1 146.187,132.916 325.306,91.302 325.855,89.148 				"/>
			</g>
			<g>
				<polygon fill="#353535" points="142.106,124.686 143.059,126.605 327.216,83.82 327.797,81.543 				"/>
			</g>
			<g>
				<polygon fill="#353535" points="70.47,138.254 92.674,164.266 146.969,151.65 132.084,123.938 				"/>
			</g>
			<g>
				<polygon fill="#353535" points="138.74,117.895 139.748,119.929 329.237,75.904 329.853,73.493 				"/>
			</g>
			<g>
				<polygon fill="#353535" points="127.348,94.916 128.558,97.356 336.071,49.145 336.81,46.251 				"/>
			</g>
			<g>
				<polygon fill="#353535" points="49.012,113.115 68.078,135.451 130.48,120.953 117.699,97.157 				"/>
			</g>
		</g>
		<g>
			<polygon fill="#353535" points="135.171,110.696 136.241,112.854 331.379,67.517 332.033,64.959 			"/>
		</g>
		<g>
			<polygon fill="#353535" points="131.381,103.051 132.518,105.343 333.653,58.613 334.347,55.895 			"/>
		</g>
	</g>
</g>
</svg>
