<?xml version="1.0" encoding="utf-8"?>
<!-- Generator: Adobe Illustrator 16.0.0, SVG Export Plug-In . SVG Version: 6.00 Build 0)  -->
<!DOCTYPE svg PUBLIC "-//W3C//DTD SVG 1.1//EN" "http://www.w3.org/Graphics/SVG/1.1/DTD/svg11.dtd">
<svg version="1.1" xmlns="http://www.w3.org/2000/svg" xmlns:xlink="http://www.w3.org/1999/xlink" x="0px" y="0px" width="800px"
	 height="568px" viewBox="0 0 800 568" enable-background="new 0 0 800 568" xml:space="preserve">
<g id="Background">
</g>
<g id="Objects">
	<g>
		<g>
			<g>
				<path fill="#EAEAEA" d="M199.834,9.722h83.5c5.583,0,10.11,4.526,10.11,10.109v0c0,5.583-4.526,10.11-10.11,10.11h-83.5
					c-5.583,0-10.11-4.526-10.11-10.11v0C189.725,14.248,194.251,9.722,199.834,9.722z"/>
				<path fill="#EAEAEA" d="M251.698,49.997h-51.55c2.794,0,5.324-1.133,7.148-2.958c1.832-1.832,2.965-4.362,2.965-7.156
					c0-5.581-4.526-10.106-10.114-10.106h51.55c-2.793,0-5.324,1.133-7.155,2.958c-1.825,1.832-2.958,4.354-2.958,7.148
					C241.584,45.471,246.11,49.997,251.698,49.997z"/>
				<path fill="#EAEAEA" d="M174.279,49.994h83.5c5.583,0,10.11,4.526,10.11,10.11l0,0c0,5.583-4.526,10.11-10.11,10.11h-83.5
					c-5.583,0-10.11-4.526-10.11-10.11l0,0C164.169,54.521,168.695,49.994,174.279,49.994z"/>
			</g>
			<g>
				<path fill="#EAEAEA" d="M71.978,136.514h83.5c5.583,0,10.11,4.526,10.11,10.11l0,0c0,5.583-4.526,10.11-10.11,10.11h-83.5
					c-5.583,0-10.11-4.526-10.11-10.11l0,0C61.868,141.041,66.395,136.514,71.978,136.514z"/>
				<path fill="#EAEAEA" d="M95.578,215.265h83.5c5.583,0,10.11,4.526,10.11,10.11l0,0c0,5.583-4.526,10.11-10.11,10.11h-83.5
					c-5.583,0-10.11-4.526-10.11-10.11l0,0C85.468,219.791,89.994,215.265,95.578,215.265z"/>
				<path fill="#EAEAEA" d="M144.575,175.789h-51.55c2.794,0,5.324-1.133,7.148-2.958c1.832-1.832,2.965-4.362,2.965-7.156
					c0-5.581-4.525-10.106-10.113-10.106h51.55c-2.794,0-5.324,1.133-7.156,2.958c-1.824,1.832-2.958,4.354-2.958,7.148
					C134.461,171.264,138.987,175.789,144.575,175.789z"/>
				<path fill="#EAEAEA" d="M176.64,216.265h-51.55c2.794,0,5.324-1.133,7.148-2.958c1.832-1.832,2.965-4.361,2.965-7.155
					c0-5.581-4.525-10.106-10.113-10.106h51.55c-2.794,0-5.324,1.133-7.156,2.958c-1.824,1.832-2.958,4.354-2.958,7.148
					C166.526,211.739,171.052,216.265,176.64,216.265z"/>
				<path fill="#EAEAEA" d="M83.256,175.787h135.216c5.583,0,10.11,4.526,10.11,10.11l0,0c0,5.583-4.526,10.11-10.11,10.11H83.256
					c-5.583,0-10.11-4.526-10.11-10.11l0,0C73.146,180.313,77.673,175.787,83.256,175.787z"/>
			</g>
		</g>
		<g>
			<g>
				<polygon fill="#CDD5D9" points="581.974,492.567 459.605,492.567 459.605,293.931 520.789,293.698 581.974,347.997 				"/>
				<g>
					<rect x="529.206" y="358.677" fill="#B3BABD" width="37.264" height="20.265"/>
					<rect x="529.206" y="390.517" fill="#B3BABD" width="37.264" height="20.266"/>
					<rect x="529.206" y="422.356" fill="#B3BABD" width="37.264" height="20.266"/>
					<rect x="529.206" y="454.197" fill="#B3BABD" width="37.264" height="20.266"/>
				</g>
			</g>
			<g>
				<path fill="#CDD5D9" d="M342.211,492.567H241.562V350.15c61.184,0.003,37.209,0.003,100.648,0V492.567z"/>
				<g>
					<rect x="254.202" y="381.942" fill="#B3BABD" width="30.742" height="16.719"/>
					<rect x="298.831" y="381.942" fill="#B3BABD" width="30.741" height="16.719"/>
					<rect x="254.202" y="408.21" fill="#B3BABD" width="30.742" height="16.719"/>
					<rect x="298.831" y="408.21" fill="#B3BABD" width="30.741" height="16.719"/>
					<rect x="254.202" y="434.478" fill="#B3BABD" width="30.742" height="16.719"/>
					<rect x="298.831" y="434.478" fill="#B3BABD" width="30.741" height="16.719"/>
					<rect x="254.202" y="460.745" fill="#B3BABD" width="30.742" height="16.719"/>
					<rect x="298.831" y="460.745" fill="#B3BABD" width="30.741" height="16.719"/>
				</g>
			</g>
			<rect x="341.14" y="203.426" fill="#B9C0C4" width="122.368" height="289.141"/>
			<g>
				<g>
					<rect x="351.725" y="432.489" fill="#58A328" width="43.907" height="44.604"/>
					<rect x="363.223" y="444.171" fill="#525252" width="8.691" height="21.241"/>
					<rect x="376.392" y="444.171" fill="#525252" width="8.691" height="21.241"/>
				</g>
				<g>
					<rect x="395.632" y="432.489" fill="#3D7F16" width="43.907" height="44.604"/>
					<rect x="407.131" y="444.171" fill="#525252" width="8.691" height="21.241"/>
					<rect x="420.299" y="444.171" fill="#525252" width="8.691" height="21.241"/>
				</g>
				<g>
					<rect x="438.539" y="432.489" fill="#3B7715" width="43.907" height="44.604"/>
					<rect x="450.038" y="444.171" fill="#525252" width="9.691" height="21.241"/>
					<rect x="463.206" y="444.171" fill="#525252" width="9.691" height="21.241"/>
				</g>
				<g>
					<rect x="351.725" y="343.237" fill="#58A328" width="43.907" height="44.604"/>
					<rect x="363.223" y="354.918" fill="#525252" width="8.691" height="21.242"/>
					<rect x="376.392" y="354.918" fill="#525252" width="8.691" height="21.242"/>
				</g>
				<g>
					<rect x="395.632" y="343.237" fill="#478225" width="43.907" height="44.604"/>
					<rect x="407.131" y="354.918" fill="#525252" width="8.691" height="21.242"/>
					<rect x="420.299" y="354.918" fill="#525252" width="8.691" height="21.242"/>
				</g>
				<g>
					<rect x="438.539" y="343.237" fill="#3E6D1F" width="43.907" height="44.604"/>
					<rect x="450.038" y="354.918" fill="#525252" width="8.691" height="21.242"/>
					<rect x="464.206" y="354.918" fill="#525252" width="7.691" height="21.242"/>
				</g>
				<g>
					<rect x="351.725" y="387.841" fill="#438419" width="43.907" height="44.604"/>
					<rect x="363.223" y="399.522" fill="#525252" width="8.691" height="21.241"/>
					<rect x="376.392" y="399.522" fill="#525252" width="8.691" height="21.241"/>
				</g>
				<g>
					<rect x="395.632" y="387.841" fill="#58A328" width="43.907" height="44.604"/>
					<rect x="407.131" y="399.522" fill="#525252" width="8.691" height="21.241"/>
					<rect x="420.299" y="399.522" fill="#525252" width="8.691" height="21.241"/>
				</g>
				<g>
					<rect x="438.539" y="387.841" fill="#58A328" width="43.907" height="44.604"/>
					<rect x="450.038" y="399.522" fill="#525252" width="9.691" height="21.241"/>
					<rect x="463.206" y="399.522" fill="#525252" width="8.691" height="21.241"/>
				</g>
				<g>
					<rect x="351.725" y="298.633" fill="#4E842A" width="43.907" height="44.604"/>
					<rect x="363.223" y="310.314" fill="#525252" width="8.691" height="21.242"/>
					<rect x="376.392" y="310.314" fill="#525252" width="8.691" height="21.242"/>
				</g>
				<g>
					<rect x="395.632" y="298.633" fill="#58A328" width="43.907" height="44.604"/>
					<rect x="407.131" y="310.314" fill="#525252" width="8.691" height="21.242"/>
					<rect x="420.299" y="310.314" fill="#525252" width="8.691" height="21.242"/>
				</g>
			</g>
		</g>
		<rect x="351.725" y="477.094" fill="#5E5247" width="130.722" height="15.474"/>
		<g>
			<g>
				<path fill="#CBCBCB" d="M60.967,387.13h41.783c2.794,0,5.059,2.265,5.059,5.059l0,0c0,2.794-2.265,5.06-5.059,5.06H60.967
					c-2.794,0-5.059-2.266-5.059-5.06l0,0C55.908,389.395,58.173,387.13,60.967,387.13z"/>
				<path fill="#CBCBCB" d="M86.919,407.283H61.124c1.398,0,2.664-0.567,3.577-1.479c0.917-0.917,1.483-2.183,1.483-3.581
					c0-2.793-2.265-5.058-5.061-5.058h25.795c-1.398,0-2.664,0.567-3.581,1.48c-0.913,0.917-1.48,2.179-1.48,3.577
					C81.858,405.019,84.123,407.283,86.919,407.283z"/>
				<path fill="#CBCBCB" d="M48.179,406.282h41.784c2.794,0,5.059,2.265,5.059,5.059l0,0c0,2.794-2.265,5.06-5.059,5.06H48.179
					c-2.794,0-5.059-2.266-5.059-5.06l0,0C43.12,408.547,45.385,406.282,48.179,406.282z"/>
			</g>
			<g>
				<path fill="#666666" d="M67.032,486.312h94.225c2.886,0,5.226-2.34,5.226-5.226v-10.09c0-2.887-2.34-5.227-5.226-5.227H67.032
					c-2.886,0-5.226,2.34-5.226,5.227v10.09C61.806,483.973,64.146,486.312,67.032,486.312z"/>
				<circle cx="77.978" cy="483.035" r="11.801"/>
				<circle fill="#B2B2B2" cx="77.978" cy="483.035" r="7.43"/>
				<circle fill="#434343" cx="77.978" cy="483.035" r="3.715"/>
				<circle cx="149.129" cy="483.035" r="11.801"/>
				<circle fill="#B2B2B2" cx="149.129" cy="483.035" r="7.43"/>
				<circle fill="#434343" cx="149.129" cy="483.035" r="3.715"/>
				<rect x="91.089" y="457.209" fill="#434343" width="40.428" height="3.536"/>
				<rect x="99.558" y="460.745" fill="#2D2829" width="22.126" height="5.025"/>
				<path fill="#434343" d="M218.787,483.925L218.787,483.925c10.716-3.726,16.382-15.433,12.656-26.148l-0.502-1.445l-19.402,6.747
					L218.787,483.925z"/>
				
					<rect x="209.684" y="463.391" transform="matrix(0.9445 -0.3284 0.3284 0.9445 -144.024 96.1053)" fill="#2D2829" width="5.635" height="22.071"/>
				
					<rect x="207.697" y="480.246" transform="matrix(0.9445 -0.3284 0.3284 0.9445 -146.8332 96.7327)" fill="#2D2829" width="10.469" height="5.552"/>
				
					<rect x="208.669" y="446.085" transform="matrix(-0.9445 0.3284 -0.3284 -0.9445 568.5532 811.2231)" fill="#FF1D25" width="14.204" height="15.079"/>
				<polygon fill="#FF1D25" points="191.925,406.669 205.342,402.004 196.935,388.963 190.427,391.226 				"/>
				
					<rect x="199.059" y="404.265" transform="matrix(-0.9446 0.3284 -0.3284 -0.9446 534.0558 762.9933)" fill="#FF1D25" width="7.102" height="44.642"/>
				
					<rect x="202.861" y="402.423" transform="matrix(-0.9446 0.3283 -0.3283 -0.9446 534.3074 730.5825)" fill="#FF1D25" width="5.244" height="15.943"/>
				
					<rect x="210.263" y="417.558" transform="matrix(-0.9445 0.3284 -0.3284 -0.9445 553.2661 770.3688)" fill="#CBCBCB" width="2.623" height="28.701"/>
				<polygon fill="#C0272D" points="189.006,411.686 180.784,398.064 197.36,392.844 201.349,399.451 				"/>
				<polygon fill="#C0272D" points="189.006,411.686 184.895,404.875 142.085,430.716 151.256,445.908 				"/>
				
					<rect x="144.198" y="412.877" transform="matrix(0.5167 0.8562 -0.8562 0.5167 432.2545 77.8921)" fill="#C0272D" width="5.875" height="17.858"/>
				
					<rect x="167.831" y="394.07" transform="matrix(0.5167 0.8562 -0.8562 0.5167 432.9862 53.2828)" fill="#CBCBCB" width="2.938" height="32.147"/>
				<path fill="#FF1D25" d="M114.145,433.088v-21.621c0-3.267,2.648-5.914,5.914-5.914h25.103c3.267,0,5.915,2.647,5.915,5.914
					v42.395c0,2.045-1.657,3.702-3.701,3.702H123.65h-9.506H79.166c-2.044,0-3.702-1.657-3.702-3.702v-11.738
					c0-4.99,4.045-9.035,9.035-9.035H114.145z"/>
				<rect x="81.692" y="438.441" fill="#C0272D" width="26.879" height="1.603"/>
				<rect x="81.692" y="440.846" fill="#C0272D" width="26.879" height="1.603"/>
				<rect x="81.692" y="443.249" fill="#C0272D" width="26.879" height="1.603"/>
				<rect x="81.692" y="445.653" fill="#C0272D" width="26.879" height="1.603"/>
				<path fill="#29AAE1" d="M147.903,414.269v25.189c0,2.088-1.692,3.79-3.789,3.79h-15.317c-2.003,0-3.639-1.552-3.78-3.526v-0.01
					c-0.009-0.084-0.009-0.169-0.009-0.254v-25.189c0-2.098,1.702-3.799,3.789-3.799h15.317c1.927,0,3.507,1.429,3.751,3.291
					C147.894,413.92,147.903,414.099,147.903,414.269z"/>
				<rect x="81.692" y="451.348" fill="#C0272D" width="26.879" height="1.603"/>
				<path fill="#FFFFFF" d="M147.903,414.269v7.767l-22.896,13.239v-8.294l22.858-13.22
					C147.894,413.92,147.903,414.099,147.903,414.269z"/>
				<path fill="#FFFFFF" d="M147.903,423.482v2.99l-22.886,13.239c-0.009-0.084-0.009-0.169-0.009-0.254v-2.736L147.903,423.482z"/>
			</g>
		</g>
		<g>
			<g>
				<path fill="#736357" d="M726.268,492.567H64.602c-5.732,0-10.378,4.646-10.378,10.379l0,0c0,5.731,4.646,10.378,10.378,10.378
					h661.666c5.732,0,10.379-4.646,10.379-10.378l0,0C736.646,497.214,732,492.567,726.268,492.567z"/>
				<path fill="#736357" d="M510.712,530.038c1.88,1.88,4.473,3.041,7.337,3.041H351.725c5.735,0,10.378-4.643,10.378-10.378
					c0-2.864-1.161-5.457-3.041-7.337c-1.873-1.88-4.466-3.041-7.337-3.041h166.324c-5.729,0-10.378,4.649-10.378,10.378
					C507.671,525.572,508.831,528.165,510.712,530.038z"/>
				<path fill="#736357" d="M565.963,532.082H135.385c-5.732,0-10.378,4.646-10.378,10.378l0,0c0,5.732,4.646,10.379,10.378,9.379
					h430.578c5.732,1,10.379-3.646,10.379-9.379l0,0C576.342,536.729,571.695,532.082,565.963,532.082z"/>
			</g>
		</g>
		<g>
			
				<rect x="616.465" y="130.246" fill="none" stroke="#458FA3" stroke-width="3.7611" stroke-miterlimit="10" width="35.73" height="342.889"/>
			<polygon fill="none" stroke="#458FA3" stroke-width="3.7611" stroke-miterlimit="10" points="652.195,42.383 616.465,94.515 
				652.195,94.515 			"/>
			<polyline fill="none" stroke="#458FA3" stroke-width="3.7611" stroke-miterlimit="10" points="650.315,130.246 618.346,148.29 
				650.315,166.334 618.346,184.38 650.315,202.427 618.346,220.472 650.315,238.519 618.346,256.564 650.315,274.606 
				618.346,292.651 650.315,310.698 618.346,328.742 650.315,346.788 618.346,364.835 650.315,382.884 618.346,400.933 
				650.315,418.981 618.346,437.031 650.315,455.083 618.346,473.135 			"/>
			<polyline fill="none" stroke="#333333" stroke-width="1.8806" stroke-miterlimit="10" points="298.023,94.515 652.195,36.397 
				756.88,94.515 			"/>
			<polygon fill="none" stroke="#458FA3" stroke-width="3.7611" stroke-miterlimit="10" points="756.88,94.515 756.88,130.246 
				279.217,130.246 298.023,94.515 			"/>
			<polyline fill="none" stroke="#458FA3" stroke-width="3.3841" stroke-miterlimit="10" points="756.877,127.656 756.209,126.842 
				732.401,97.915 731.734,97.108 731.066,97.915 707.259,126.842 706.591,127.656 705.923,126.842 682.115,97.915 681.447,97.108 
				680.78,97.915 656.973,126.842 656.305,127.656 655.637,126.842 631.829,97.915 631.161,97.108 630.494,97.915 606.686,126.842 
				606.019,127.656 605.351,126.842 581.543,97.915 580.875,97.108 580.208,97.915 556.409,126.842 555.741,127.656 
				555.074,126.842 531.275,97.915 530.607,97.108 529.94,97.915 506.132,126.842 505.465,127.656 504.797,126.842 480.989,97.915 
				480.321,97.108 479.654,97.915 455.855,126.842 455.188,127.656 454.521,126.842 430.713,97.915 430.045,97.108 429.377,97.915 
				405.578,126.842 404.911,127.656 404.243,126.842 380.436,97.915 379.768,97.108 379.1,97.915 355.292,126.842 354.625,127.656 
				353.957,126.842 330.159,97.915 329.491,97.108 328.823,97.915 305.025,126.842 304.357,127.656 303.689,126.842 
				290.018,110.231 			"/>
			<g>
				<rect x="702.188" y="131.97" fill="#666666" width="51.401" height="28.835"/>
				<polygon fill="#4D4D4D" points="753.589,160.805 702.188,160.805 753.589,131.97 				"/>
			</g>
			<g>
				<path fill="#408496" d="M614.584,138.399v56.727h-37.922v-38.993c0-7.955,5.237-14.688,12.449-16.935
					c1.674-0.517,3.441-0.799,5.285-0.799H614.584z"/>
				<rect x="595.623" y="151.873" fill="#5EC3DE" width="11.233" height="29.775"/>
				<path fill="#346B7A" d="M589.111,139.198v55.928h-12.449v-38.993C576.662,148.178,581.899,141.445,589.111,139.198z"/>
			</g>
			<circle fill="#4D4D4D" cx="652.196" cy="42.957" r="6.559"/>
			<g>
				
					<line fill="none" stroke="#434343" stroke-width="1.8806" stroke-miterlimit="10" x1="461.583" y1="141.988" x2="461.583" y2="165.036"/>
				
					<line fill="none" stroke="#434343" stroke-width="1.8806" stroke-miterlimit="10" x1="422.815" y1="141.988" x2="422.815" y2="165.036"/>
				<rect x="420.573" y="132.126" fill="#408496" width="43.253" height="10.343"/>
				<polygon fill="#346B7A" points="463.826,142.47 420.573,142.47 463.826,132.126 				"/>
				<path fill="none" stroke="#434343" stroke-width="1.8806" stroke-miterlimit="10" d="M442.199,180.708v7.052h3.683
					c2.034,0,3.684,1.649,3.684,3.683v3.8c0,2.034-1.649,3.683-3.684,3.683l0,0c-2.033,0-3.683-1.649-3.683-3.683v-2.546"/>
				<path fill="#346B7A" d="M420.573,165.036v10.343l13.006,6.503c2.713,1.356,5.667,2.035,8.62,2.035v-18.881H420.573z"/>
				<path fill="#408496" d="M442.199,165.036v18.881c2.954,0,5.907-0.679,8.621-2.035l13.006-6.503v-10.343H442.199z"/>
				<path d="M425.666,168.641L425.666,168.641c1.039,0,1.881,0.842,1.881,1.881v2.075c0,1.039-0.842,1.88-1.881,1.88l0,0
					c-1.038,0-1.881-0.842-1.881-1.88v-2.075C423.785,169.483,424.628,168.641,425.666,168.641z"/>
				<path d="M458.732,168.641L458.732,168.641c1.039,0,1.881,0.842,1.881,1.881v2.075c0,1.039-0.842,1.88-1.881,1.88l0,0
					c-1.038,0-1.88-0.842-1.88-1.88v-2.075C456.853,169.483,457.694,168.641,458.732,168.641z"/>
				<g>
					<circle fill="#ED4B00" cx="425.656" cy="145.467" r="2.841"/>
					<circle fill="#434343" cx="425.656" cy="145.467" r="1.887"/>
					<circle fill="#ED4B00" cx="458.743" cy="145.467" r="2.84"/>
					<circle fill="#434343" cx="458.743" cy="145.467" r="1.887"/>
					<circle fill="#ED4B00" cx="425.656" cy="162.196" r="2.841"/>
					<circle fill="#434343" cx="425.656" cy="162.196" r="1.887"/>
					<circle fill="#ED4B00" cx="458.743" cy="162.196" r="2.84"/>
					<circle fill="#434343" cx="458.743" cy="162.196" r="1.887"/>
				</g>
			</g>
			<polygon fill="#434343" points="669.834,473.135 598.827,473.135 595.152,492.567 673.509,492.567 			"/>
		</g>
		<g>
			<g>
				<rect x="421.945" y="223.878" fill="#87A79A" width="43.907" height="44.604"/>
				<rect x="433.444" y="235.559" fill="#525252" width="8.691" height="21.242"/>
				<rect x="446.612" y="235.559" fill="#525252" width="8.691" height="21.242"/>
			</g>
			<polyline fill="none" stroke="#525252" stroke-width="0.9403" stroke-miterlimit="10" points="421.945,223.878 445.882,198.926 
				465.853,223.878 			"/>
		</g>
	</g>
</g>
</svg>
