<?xml version="1.0" encoding="utf-8"?>
<!-- Generator: Adobe Illustrator 16.0.0, SVG Export Plug-In . SVG Version: 6.00 Build 0)  -->
<!DOCTYPE svg PUBLIC "-//W3C//DTD SVG 1.1//EN" "http://www.w3.org/Graphics/SVG/1.1/DTD/svg11.dtd">
<svg version="1.1" xmlns="http://www.w3.org/2000/svg" xmlns:xlink="http://www.w3.org/1999/xlink" x="0px" y="0px"
	 width="641.968px" height="434.556px" viewBox="0 0 641.968 434.556" enable-background="new 0 0 641.968 434.556"
	 xml:space="preserve">
<g id="background">
</g>
<g id="Objects">
	<g>
		<g id="pencil">
			<path fill="#F9A818" d="M619.21,153.119l-147.508,0.001c0.279,1.18,1.709,2.106,3.501,2.253h144.005L619.21,153.119z"/>
			<path fill="#F5E6B6" d="M619.208,160.735v-5.362H475.204l0.003,0.001c-0.016,0.001-0.029,0.004-0.045,0.006
				c0.015,0.001,0.036,0.001,0.05,0.002c-2.006,0.164-3.56,1.295-3.562,2.671c0.004,1.376,1.558,2.507,3.562,2.67
				c-0.014,0.001-0.035,0.001-0.05,0.002c0.016,0.001,0.029,0.006,0.045,0.007l-0.002,0.001H619.208z"/>
			<path fill="#F9A818" d="M475.205,160.735c-1.794,0.146-3.224,1.073-3.503,2.253h147.507v-2.253H475.205z"/>
			<path fill="#F0B16C" d="M471.702,162.993c0.274-1.182,1.705-2.111,3.503-2.258l0.002-0.001c-0.016-0.001-0.029-0.006-0.045-0.007
				c0.015-0.001,0.036-0.001,0.05-0.002c-2.005-0.163-3.559-1.294-3.562-2.67c0.003-1.375,1.557-2.507,3.562-2.671
				c-0.014-0.001-0.035-0.001-0.05-0.002c0.016-0.002,0.029-0.005,0.045-0.006l-0.003-0.001c-1.797-0.147-3.227-1.075-3.502-2.259
				l-9.449,4.94L471.702,162.993z"/>
			<path fill="#103754" d="M466.89,155.629l-4.638,2.425l4.637,2.426c0.283-0.782,0.439-1.59,0.438-2.426
				C467.329,157.219,467.172,156.407,466.89,155.629z"/>
			<g>
				<rect x="619.265" y="153.119" fill="#C62229" width="4.473" height="2.254"/>
				<rect x="619.265" y="155.373" fill="#F85A68" width="4.471" height="5.362"/>
				<rect x="619.265" y="160.735" fill="#C62229" width="4.473" height="2.253"/>
			</g>
		</g>
		<g id="glasses">
			<g>
				<g>
					<path fill="#50667E" d="M627.233,124.609c-0.472,0-0.954-0.111-1.393-0.358l-24.749-13.298
						c-4.761-2.56-9.833-4.524-15.07-5.842c-5.238-1.326-10.638-1.992-16.043-1.992H461.192V97.22h108.786
						c5.89,0,11.77,0.735,17.484,2.169c5.705,1.438,11.229,3.583,16.418,6.375l24.75,13.298c1.437,0.771,1.971,2.559,1.201,3.99
						C629.299,124.042,628.282,124.609,627.233,124.609z"/>
					<path fill="#50667E" d="M458.079,124.609c0.471,0,0.951-0.111,1.396-0.358l24.745-13.298c4.76-2.56,9.831-4.524,15.066-5.842
						c5.239-1.326,10.641-1.992,16.044-1.992h108.79V97.22h-108.79c-5.892,0-11.772,0.735-17.481,2.169
						c-5.709,1.438-11.229,3.583-16.423,6.375l-24.747,13.298c-1.434,0.771-1.972,2.559-1.201,3.99
						C456.012,124.042,457.03,124.609,458.079,124.609z"/>
				</g>
			</g>
			<path fill="#20364D" d="M534.904,101.916L534.904,101.916c0-4.274,3.478-7.745,7.749-7.745c4.277,0,7.755,3.471,7.755,7.745l0,0
				h5.894l0,0c0-7.536-6.105-13.645-13.648-13.645c-7.535,0-13.644,6.109-13.644,13.645l0,0H534.904z"/>
			<g>
				<path fill="#E1EFFA" d="M529.009,111.146c0,6.211-5.082,11.293-11.293,11.293h-39.338c-6.211,0-11.292-5.082-11.292-11.293
					V89.939c0-6.211,5.081-11.294,11.292-11.294h39.338c6.211,0,11.293,5.083,11.293,11.294V111.146z"/>
				<path fill="#CEE2F2" d="M517.716,78.645h-21.643v43.794h21.643c6.211,0,11.293-5.082,11.293-11.293V89.939
					C529.009,83.728,523.927,78.645,517.716,78.645z"/>
			</g>
			<g>
				<path fill="#E1EFFA" d="M618.051,111.146c0,6.211-5.083,11.293-11.294,11.293h-39.338c-6.211,0-11.292-5.082-11.292-11.293
					V89.939c0-6.211,5.081-11.294,11.292-11.294h39.338c6.211,0,11.294,5.083,11.294,11.294V111.146z"/>
				<path fill="#CEE2F2" d="M606.757,78.645h-21.642v43.794h21.642c6.211,0,11.294-5.082,11.294-11.293V89.939
					C618.051,83.728,612.968,78.645,606.757,78.645z"/>
			</g>
			<path fill="#2A445E" d="M520.645,72.897H475.45c-7.843,0-14.258,6.417-14.258,14.257v26.775c0,7.842,6.415,14.258,14.258,14.258
				h45.195c7.843,0,14.259-6.416,14.259-14.258V87.154C534.904,79.313,528.488,72.897,520.645,72.897z M529.009,111.146
				c0,6.211-5.082,11.293-11.293,11.293h-39.338c-6.211,0-11.292-5.082-11.292-11.293V89.939c0-6.211,5.081-11.294,11.292-11.294
				h39.338c6.211,0,11.293,5.083,11.293,11.294V111.146z"/>
			<path fill="#2A445E" d="M609.687,72.897h-45.195c-7.843,0-14.259,6.417-14.259,14.257v26.775c0,7.842,6.416,14.258,14.259,14.258
				h45.195c7.843,0,14.258-6.416,14.258-14.258V87.154C623.945,79.313,617.53,72.897,609.687,72.897z M618.051,111.146
				c0,6.211-5.083,11.293-11.294,11.293h-39.338c-6.211,0-11.292-5.082-11.292-11.293V89.939c0-6.211,5.081-11.294,11.292-11.294
				h39.338c6.211,0,11.294,5.083,11.294,11.294V111.146z"/>
		</g>
		<g id="paper">
			<g>
				<path fill-rule="evenodd" clip-rule="evenodd" fill="#EEEEEE" d="M21.498,75.673l245.317,0.135l-0.194,346.951l-245.317-0.137
					L21.498,75.673z"/>
				<g>
					<path fill="#A6DAE9" d="M171.951,258.172c-1.319,4.075-3.442,7.74-6.289,10.807l21.45,29.947
						c10.841-9.344,18.629-22.109,21.579-36.679L171.951,258.172z"/>
					<path fill="#F99B1C" d="M150.061,220.189c12.498,2.604,21.966,13.145,23.209,26.07l36.688,4.047
						c0-0.413,0.052-0.812,0.052-1.239c0-34.385-26.34-62.602-59.949-65.643V220.189z"/>
					<path fill="#15B0BF" d="M122.353,229.298c4.085-4.525,9.491-7.813,15.731-9.108v-36.765
						c-19.589,1.76-36.61,12.083-47.504,27.17L122.353,229.298z"/>
					<path fill="#4C8EB4" d="M155.961,275.989c-3.648,1.63-7.659,2.562-11.903,2.562c-16.275,0-29.471-13.21-29.471-29.484
						c0-3.325,0.673-6.458,1.686-9.432l-31.774-18.721c-4.035,8.55-6.391,18.062-6.391,28.152c0,36.428,29.52,65.938,65.951,65.938
						c12.159,0,23.522-3.324,33.299-9.095L155.961,275.989z"/>
				</g>
				<g>
					<rect x="46.857" y="99.057" fill="#F99B1C" width="30.699" height="8.934"/>
					<rect x="46.857" y="119.416" fill="#15B0BF" width="30.699" height="8.933"/>
					<rect x="46.857" y="139.774" fill="#A6DAE9" width="30.699" height="8.932"/>
					<rect x="46.857" y="160.134" fill="#4C8EB4" width="30.699" height="8.932"/>
					<rect x="98.341" y="99.502" fill="#CCCCCC" width="142.919" height="10.052"/>
					<rect x="98.341" y="129.542" fill="#CCCCCC" width="142.919" height="10.043"/>
					<rect x="98.341" y="159.582" fill="#CCCCCC" width="142.919" height="10.037"/>
					<rect x="98.341" y="144.563" fill="#CCCCCC" width="142.919" height="10.035"/>
					<rect x="98.341" y="114.528" fill="#CCCCCC" width="142.919" height="10.035"/>
				</g>
				<g>
					<rect x="46.86" y="324.177" fill="#CCCCCC" width="6.496" height="69.025"/>
					<rect x="46.857" y="393.202" fill="#CCCCCC" width="194.403" height="6.496"/>
					<g>
						<rect x="70.41" y="362.508" fill="#15B0BF" width="17.403" height="30.694"/>
						<rect x="70.41" y="347.163" fill="#A6DAE9" width="17.403" height="15.345"/>
					</g>
					<g>
						<rect x="102.864" y="349.217" fill="#15B0BF" width="17.405" height="43.985"/>
						<rect x="102.864" y="340.42" fill="#A6DAE9" width="17.405" height="8.797"/>
					</g>
					<g>
						<rect x="135.319" y="370.869" fill="#15B0BF" width="17.404" height="22.333"/>
						<rect x="135.319" y="354.835" fill="#A6DAE9" width="17.404" height="16.034"/>
					</g>
					<g>
						<rect x="167.774" y="380.412" fill="#15B0BF" width="17.404" height="12.79"/>
						<rect x="167.774" y="367.624" fill="#A6DAE9" width="17.404" height="12.788"/>
					</g>
				</g>
			</g>
			
				<rect x="196.052" y="75.787" transform="matrix(-1 -5.802234e-04 5.802234e-04 -1 462.65 454.0903)" opacity="0.1" fill-rule="evenodd" clip-rule="evenodd" width="70.678" height="302.382"/>
			<g>
				<path fill-rule="evenodd" clip-rule="evenodd" fill="#EFEFEF" d="M207.995,22.778l243.031,0.135l-0.192,343.717l-243.031-0.137
					L207.995,22.778z"/>
				<g>
					<polygon fill-rule="evenodd" clip-rule="evenodd" fill="#4C8EB4" points="238.494,200.453 259.482,200.465 259.447,219.559 
						238.455,219.546 					"/>
					<polygon fill-rule="evenodd" clip-rule="evenodd" fill="#609DC1" points="262.747,192.234 283.739,192.244 283.715,219.57 
						262.725,219.559 					"/>
					<polygon fill-rule="evenodd" clip-rule="evenodd" fill="#73ACCD" points="287.011,173.096 308,173.105 307.983,219.584 
						286.995,219.572 					"/>
					
						<rect x="311.274" y="179.559" transform="matrix(-1 -6.281455e-04 6.281455e-04 -1 643.4122 399.3515)" fill-rule="evenodd" clip-rule="evenodd" fill="#87BBDA" width="20.989" height="40.031"/>
					<polygon fill-rule="evenodd" clip-rule="evenodd" fill="#9ACAE6" points="335.548,199.562 356.538,199.573 356.521,219.611 
						335.534,219.6 					"/>
					
						<rect x="359.193" y="191.986" transform="matrix(-1 -5.582889e-04 5.582889e-04 -1 739.259 411.7708)" fill-rule="evenodd" clip-rule="evenodd" fill="#73ACCD" width="20.988" height="27.592"/>
					
						<rect x="383.465" y="179.553" transform="matrix(-1 -6.515105e-04 6.515105e-04 -1 787.7878 399.3997)" fill-rule="evenodd" clip-rule="evenodd" fill="#87BBDA" width="20.987" height="40.037"/>
					<polygon fill-rule="evenodd" clip-rule="evenodd" fill="#9ACAE6" points="407.736,153.112 428.727,153.122 428.711,219.611 
						407.723,219.6 					"/>
				</g>
				
					<rect x="230.167" y="247.855" transform="matrix(-1 -5.468448e-04 5.468448e-04 -1 551.2573 501.9114)" fill-rule="evenodd" clip-rule="evenodd" fill="#CCCCCC" width="91.061" height="6.051"/>
				
					<rect x="230.157" y="258.442" transform="matrix(-1 -5.361160e-04 5.361160e-04 -1 551.2387 523.0833)" fill-rule="evenodd" clip-rule="evenodd" fill="#CCCCCC" width="91.065" height="6.051"/>
				
					<rect x="230.154" y="269.031" transform="matrix(-1 -5.575736e-04 5.575736e-04 -1 551.2169 544.266)" fill-rule="evenodd" clip-rule="evenodd" fill="#CCCCCC" width="91.062" height="6.05"/>
				
					<rect x="230.148" y="279.619" transform="matrix(-1 -5.575736e-04 5.575736e-04 -1 551.2003 565.4408)" fill-rule="evenodd" clip-rule="evenodd" fill="#CCCCCC" width="91.062" height="6.049"/>
				
					<rect x="230.141" y="290.208" transform="matrix(-1 -5.468448e-04 5.468448e-04 -1 551.1838 586.6165)" fill-rule="evenodd" clip-rule="evenodd" fill="#CCCCCC" width="91.062" height="6.051"/>
				
					<rect x="230.134" y="300.795" transform="matrix(-1 -5.575736e-04 5.575736e-04 -1 551.1626 607.7953)" fill-rule="evenodd" clip-rule="evenodd" fill="#CCCCCC" width="91.064" height="6.052"/>
				
					<rect x="230.126" y="311.383" transform="matrix(-1 -5.468448e-04 5.468448e-04 -1 551.1464 628.972)" fill-rule="evenodd" clip-rule="evenodd" fill="#CCCCCC" width="91.066" height="6.055"/>
				
					<rect x="230.124" y="321.96" transform="matrix(-1 -5.575736e-04 5.575736e-04 -1 505.599 650.1116)" fill-rule="evenodd" clip-rule="evenodd" fill="#CCCCCC" width="45.532" height="6.051"/>
				
					<rect x="337.523" y="247.915" transform="matrix(-1 -5.361160e-04 5.361160e-04 -1 765.9753 502.0862)" fill-rule="evenodd" clip-rule="evenodd" fill="#CCCCCC" width="91.063" height="6.051"/>
				
					<rect x="337.516" y="258.503" transform="matrix(-1 -5.575736e-04 5.575736e-04 -1 765.9508 523.2692)" fill-rule="evenodd" clip-rule="evenodd" fill="#CCCCCC" width="91.065" height="6.05"/>
				
					<rect x="337.511" y="269.09" transform="matrix(-1 -5.253871e-04 5.253871e-04 -1 765.9424 544.4346)" fill-rule="evenodd" clip-rule="evenodd" fill="#CCCCCC" width="91.063" height="6.053"/>
				
					<rect x="337.506" y="279.68" transform="matrix(-1 -5.575736e-04 5.575736e-04 -1 765.9185 565.6207)" fill-rule="evenodd" clip-rule="evenodd" fill="#CCCCCC" width="91.063" height="6.048"/>
				
					<rect x="337.501" y="290.268" transform="matrix(-1 -5.683025e-04 5.683025e-04 -1 765.8967 586.8026)" fill-rule="evenodd" clip-rule="evenodd" fill="#CCCCCC" width="91.061" height="6.049"/>
				
					<rect x="337.493" y="300.856" transform="matrix(-1 -5.575736e-04 5.575736e-04 -1 765.8803 607.9762)" fill-rule="evenodd" clip-rule="evenodd" fill="#CCCCCC" width="91.063" height="6.05"/>
				
					<rect x="337.485" y="311.443" transform="matrix(-1 -5.361160e-04 5.361160e-04 -1 765.8671 629.1448)" fill-rule="evenodd" clip-rule="evenodd" fill="#CCCCCC" width="91.065" height="6.053"/>
				
					<rect x="337.482" y="322.026" transform="matrix(-1 -5.332549e-04 5.332549e-04 -1 738.8892 650.2986)" fill-rule="evenodd" clip-rule="evenodd" fill="#CCCCCC" width="64.098" height="6.05"/>
				<g>
					<g>
						<polygon fill="#179113" points="243.261,137.417 237.676,129.849 306.977,78.737 352.02,109.53 423.952,60.273 
							429.261,68.031 352.022,120.923 307.184,90.27 						"/>
					</g>
					<g>
						<polygon fill="#179113" points="429.918,84.503 422.393,84.503 422.393,67.913 405.803,67.913 405.803,60.391 429.918,60.391 
													"/>
					</g>
				</g>
				<circle fill="#064C13" cx="351.423" cy="113.461" r="10.344"/>
				<circle fill="#064C13" cx="307.236" cy="84.503" r="10.343"/>
			</g>
		</g>
		<g id="magnifying_glass">
			<path opacity="0.1" fill="#FFFFFF" d="M345.018,248.978c-9.751,9.751-15.135,22.701-15.166,36.451
				c-0.054,28.502,23.09,51.731,51.596,51.775c13.828,0.027,26.839-5.357,36.661-15.172l0,0
				c9.747-9.747,15.128-22.681,15.152-36.422c0.026-13.789-5.342-26.772-15.105-36.567c-9.761-9.799-22.729-15.202-36.52-15.23
				C367.831,233.791,354.824,239.177,345.018,248.978L345.018,248.978z"/>
			<g>
				<g>
					<path fill="none" d="M424.807,328.73"/>
				</g>
				<g>
					<path fill="#A6DAE9" d="M414.655,325.188c0.574-0.479,1.141-0.972,1.695-1.479C415.795,324.217,415.229,324.71,414.655,325.188
						z"/>
					<path fill="#A6DAE9" d="M416.463,323.606c0.558-0.512,1.107-1.035,1.646-1.574C417.571,322.571,417.02,323.095,416.463,323.606
						z"/>
					<path opacity="0.6" fill="#FFFFFF" d="M345.018,248.978c8.759-8.755,20.074-13.982,32.232-14.984
						c-2.375,0.198-4.717,0.56-7.016,1.074c-5.627,2.545-10.811,6.099-15.315,10.609c-9.75,9.75-15.13,22.694-15.156,36.449
						c-0.055,28.502,23.093,51.728,51.596,51.786c3.881,0.003,7.706-0.429,11.41-1.257c4.211-1.905,8.177-4.379,11.797-7.392
						c-9.309,7.756-20.894,11.964-33.117,11.94c-28.506-0.044-51.65-23.273-51.596-51.775
						C329.883,271.679,335.267,258.729,345.018,248.978z"/>
					<path fill="#A6DAE9" d="M377.34,233.985c0.406-0.032,0.814-0.06,1.224-0.084C378.155,233.927,377.748,233.952,377.34,233.985z"
						/>
					<path fill="#A6DAE9" d="M378.82,233.887c0.365-0.019,0.73-0.033,1.096-0.044C379.55,233.854,379.185,233.867,378.82,233.887z"
						/>
					<path fill="#A6DAE9" d="M380.249,233.831c0.462-0.012,0.925-0.019,1.389-0.019C381.173,233.812,380.71,233.819,380.249,233.831
						z"/>
				</g>
				<g>
					<path fill="#0E303F" d="M445.171,349.671c-3.47,3.467-9.098,3.45-12.562-0.024l-11.072-11.431
						c-3.456-3.477-3.452-9.09,0.008-12.55c0,0,0.018-0.011,0.027-0.016c3.473-3.462,9.097-3.454,12.562,0.028l11.071,11.427
						c3.456,3.47,3.452,9.087-0.013,12.55C445.193,349.655,445.175,349.666,445.171,349.671z"/>
				</g>
			</g>
			<path fill="#2C5871" d="M312.083,285.396c-0.072,38.296,31.037,69.517,69.337,69.585c18.585,0.031,36.083-7.203,49.254-20.378
				c0,0,0,0,0-0.006c13.099-13.093,20.322-30.483,20.353-48.958c0.037-18.53-7.17-35.985-20.281-49.143
				c-13.112-13.155-30.544-20.422-49.07-20.454c-18.579-0.026-36.058,7.2-49.227,20.366
				C319.348,249.513,312.111,266.913,312.083,285.396z M329.853,285.429c0.03-13.75,5.415-26.7,15.166-36.451
				c9.806-9.801,22.812-15.187,36.619-15.165c13.791,0.028,26.759,5.432,36.52,15.23c9.764,9.795,15.132,22.778,15.105,36.567
				c-0.024,13.741-5.405,26.675-15.152,36.422c-9.822,9.814-22.833,15.199-36.661,15.172
				C352.943,337.16,329.799,313.931,329.853,285.429z"/>
			
				<rect x="460.152" y="326.406" transform="matrix(-0.7071 0.7071 -0.7071 -0.7071 1086.3958 314.716)" fill="#103754" width="35.732" height="111.903"/>
			
				<rect x="467.553" y="326.406" transform="matrix(-0.7071 0.7071 -0.7071 -0.7071 1086.394 314.7166)" fill="#2C5871" width="20.927" height="111.904"/>
			
				<rect x="493.647" y="407.273" transform="matrix(-0.7071 0.7071 -0.7071 -0.7071 1167.2617 348.2124)" fill="#0E303F" width="35.734" height="17.163"/>
			
				<rect x="501.05" y="407.272" transform="matrix(-0.7071 0.7071 -0.7071 -0.7071 1167.2627 348.2335)" fill="#164866" width="20.927" height="17.163"/>
			<g>
				<path opacity="0.6" fill="#FFFFFF" d="M405.01,248.802c-12.364-6.106-26.357-7.05-39.39-2.666
					c-4.524,1.523-8.689,3.627-12.463,6.182l3.818,10.123c4.398-3.379,9.408-6.112,14.952-7.979
					c13.035-4.39,27.021-3.448,39.386,2.657c5.704,2.815,10.812,6.724,15.023,11.226
					C421.296,260.004,413.985,253.236,405.01,248.802z"/>
			</g>
		</g>
		<g id="calculator">
			<path fill="#617B93" d="M596.245,230.988H489.746V332.55c0,1.263,0.482,2.526,1.45,3.488c0.962,0.96,2.223,1.442,3.485,1.442
				h96.631c1.26,0,2.521-0.482,3.486-1.442c0.959-0.962,1.446-2.226,1.446-3.488V230.988z"/>
			<polygon opacity="0.1" fill="#FFFFFF" points="503.218,230.988 596.245,230.988 596.245,320.342 			"/>
			<g>
				<g>
					<g>
						<path fill="#21D8DE" d="M537.892,253.837c0,0.476-0.391,0.865-0.862,0.865h-35.477c-0.475,0-0.86-0.39-0.86-0.865v-11.416
							c0-0.469,0.386-0.859,0.86-0.859h35.477c0.472,0,0.862,0.391,0.862,0.859V253.837z"/>
					</g>
					<g>
						<path fill="#E64717" d="M561.961,253.837c0,0.476-0.39,0.865-0.865,0.865h-11.403c-0.473,0-0.86-0.39-0.86-0.865v-11.416
							c0-0.469,0.388-0.859,0.86-0.859h11.403c0.476,0,0.865,0.391,0.865,0.859V253.837z"/>
					</g>
					<g>
						<g>
							<path fill="#F2F9FF" d="M586.024,253.837c0,0.476-0.385,0.865-0.857,0.865h-11.408c-0.471,0-0.856-0.39-0.856-0.865v-11.416
								c0-0.469,0.386-0.859,0.856-0.859h11.408c0.473,0,0.857,0.391,0.857,0.859V253.837z"/>
						</g>
					</g>
					<g>
						<g>
							<path fill="#F2F9FF" d="M513.819,277.912c0,0.47-0.382,0.854-0.856,0.854h-11.409c-0.475,0-0.86-0.385-0.86-0.854v-11.415
								c0-0.476,0.386-0.859,0.86-0.859h11.409c0.475,0,0.856,0.384,0.856,0.859V277.912z"/>
						</g>
					</g>
					<g>
						<g>
							<path fill="#F2F9FF" d="M537.892,277.912c0,0.47-0.391,0.854-0.862,0.854h-11.407c-0.476,0-0.862-0.385-0.862-0.854v-11.415
								c0-0.476,0.387-0.859,0.862-0.859h11.407c0.472,0,0.862,0.384,0.862,0.859V277.912z"/>
						</g>
					</g>
					<g>
						<g>
							<path fill="#F2F9FF" d="M561.961,277.912c0,0.47-0.39,0.854-0.865,0.854h-11.403c-0.473,0-0.86-0.385-0.86-0.854v-11.415
								c0-0.476,0.388-0.859,0.86-0.859h11.403c0.476,0,0.865,0.384,0.865,0.859V277.912z"/>
						</g>
					</g>
					<g>
						<g>
							<path fill="#F2F9FF" d="M586.024,277.912c0,0.47-0.385,0.854-0.857,0.854h-11.408c-0.471,0-0.856-0.385-0.856-0.854v-11.415
								c0-0.476,0.386-0.859,0.856-0.859h11.408c0.473,0,0.857,0.384,0.857,0.859V277.912z"/>
						</g>
					</g>
					<g>
						<g>
							<path fill="#F2F9FF" d="M513.819,301.977c0,0.475-0.382,0.86-0.856,0.86h-11.409c-0.475,0-0.86-0.386-0.86-0.86v-11.41
								c0-0.475,0.386-0.859,0.86-0.859h11.409c0.475,0,0.856,0.385,0.856,0.859V301.977z"/>
						</g>
					</g>
					<g>
						<g>
							<path fill="#F2F9FF" d="M537.892,301.977c0,0.475-0.391,0.86-0.862,0.86h-11.407c-0.476,0-0.862-0.386-0.862-0.86v-11.41
								c0-0.475,0.387-0.859,0.862-0.859h11.407c0.472,0,0.862,0.385,0.862,0.859V301.977z"/>
						</g>
					</g>
					<g>
						<path fill="#20364D" d="M561.961,301.977c0,0.475-0.39,0.86-0.865,0.86h-11.403c-0.473,0-0.86-0.386-0.86-0.86v-11.41
							c0-0.475,0.388-0.859,0.86-0.859h11.403c0.476,0,0.865,0.385,0.865,0.859V301.977z"/>
					</g>
					<g>
						<g>
							<path fill="#F2F9FF" d="M513.819,326.046c0,0.476-0.382,0.86-0.856,0.86h-11.409c-0.475,0-0.86-0.385-0.86-0.86v-11.404
								c0-0.475,0.386-0.865,0.86-0.865h11.409c0.475,0,0.856,0.391,0.856,0.865V326.046z"/>
						</g>
					</g>
					<g>
						<g>
							<path fill="#F2F9FF" d="M537.892,326.046c0,0.476-0.391,0.86-0.862,0.86h-11.407c-0.476,0-0.862-0.385-0.862-0.86v-11.404
								c0-0.475,0.387-0.865,0.862-0.865h11.407c0.472,0,0.862,0.391,0.862,0.865V326.046z"/>
						</g>
					</g>
					<g>
						<g>
							<path fill="#20364D" d="M561.961,326.046c0,0.476-0.39,0.86-0.865,0.86h-11.403c-0.473,0-0.86-0.385-0.86-0.86v-11.404
								c0-0.475,0.388-0.865,0.86-0.865h11.403c0.476,0,0.865,0.391,0.865,0.865V326.046z"/>
						</g>
					</g>
					<g>
						<path fill="#20364D" d="M586.024,326.046c0,0.476-0.385,0.86-0.857,0.86h-11.408c-0.471,0-0.856-0.385-0.856-0.86v-11.404
							c0-0.475,0.386-0.865,0.856-0.865h11.408c0.473,0,0.857,0.391,0.857,0.865V326.046z"/>
					</g>
					<g>
						<path fill="#20364D" d="M586.024,301.977c0,0.475-0.385,0.86-0.857,0.86h-11.408c-0.471,0-0.856-0.386-0.856-0.86v-11.41
							c0-0.475,0.386-0.859,0.856-0.859h11.408c0.473,0,0.857,0.385,0.857,0.859V301.977z"/>
					</g>
				</g>
			</g>
			<path fill="#365772" d="M596.245,188.521c0-1.266-0.487-2.528-1.446-3.491c-0.965-0.965-2.227-1.445-3.486-1.445h-96.631
				c-1.263,0-2.523,0.48-3.485,1.445c-0.968,0.962-1.45,2.225-1.45,3.491v42.467h106.499V188.521z"/>
			<path fill="#2F4F6B" d="M501.553,222.469c-0.775,0-1.51-0.301-2.059-0.853c-0.55-0.55-0.854-1.278-0.854-2.057v-24.538
				c0-0.776,0.305-1.509,0.854-2.056c0.549-0.547,1.283-0.854,2.059-0.854h83.613c0.783,0,1.52,0.307,2.066,0.86
				c0.542,0.541,0.848,1.274,0.848,2.05v24.538c0,0.778-0.306,1.507-0.853,2.057c-0.542,0.546-1.278,0.853-2.062,0.853H501.553z"/>
			<path fill="#FEC00F" d="M501.553,194.162c-0.22,0-0.439,0.084-0.607,0.252c-0.168,0.167-0.253,0.389-0.253,0.608v24.538
				c0,0.216,0.085,0.439,0.253,0.607s0.388,0.253,0.607,0.253h83.613c0.221,0,0.439-0.085,0.609-0.253
				c0.164-0.168,0.248-0.392,0.248-0.607v-24.538c0-0.219-0.084-0.44-0.248-0.608c-0.17-0.168-0.389-0.252-0.609-0.252H501.553z"/>
			<rect x="489.746" y="228.938" fill="#2F4F6B" width="106.499" height="2.051"/>
		</g>
	</g>
</g>
</svg>
