<?xml version="1.0" encoding="utf-8"?>
<!-- Generator: Adobe Illustrator 16.0.0, SVG Export Plug-In . SVG Version: 6.00 Build 0)  -->
<!DOCTYPE svg PUBLIC "-//W3C//DTD SVG 1.1//EN" "http://www.w3.org/Graphics/SVG/1.1/DTD/svg11.dtd">
<svg version="1.1" xmlns="http://www.w3.org/2000/svg" xmlns:xlink="http://www.w3.org/1999/xlink" x="0px" y="0px" width="800px"
	 height="800px" viewBox="0 0 800 800" enable-background="new 0 0 800 800" xml:space="preserve">
<g id="Background">
</g>
<g id="Objects">
	<g>
		<path fill="#154D61" d="M123.092,616.069c0,0,21.037,26.604,40.098,48.791c19.061,22.188,45.443,42.251,45.443,42.251
			s10.275-2.786,27.852-10.9c17.578-8.114,19.345-12.02,19.345-12.02s-5.169-21.199-18.537-21.898
			c-2.031-8.344-6.14-18.846-16.647-19.179c-0.914-9.277-7.995-28.002-21.475-30.879c0.632-10.377-4.771-19.133-4.771-19.133
			L123.092,616.069z"/>
		<path fill="#154D61" d="M216.729,589.551l12.101,27.137c0,0-3.1,3.436-7.851,4.555c-4.75,1.118-15.213-11.093-18.073-17.14
			c-2.86-6.045-5.472-13.98-5.472-13.98L216.729,589.551z"/>
		<g>
			<path fill="#154D61" d="M53.099,557.578c0,0-0.558,4.046,0.715,11.876c-7.75,6.71-10.838,17.813-6.889,27.905
				c3.95,10.09,13.755,16.149,24,15.815c4.381,6.612,7.537,9.205,7.537,9.205l23.161-3.034l-14.729-37.631l-14.728-37.629
				L53.099,557.578z"/>
			<path fill="#EF7C6D" d="M208.959,445.999c-25.259,41.484-76.458,65.329-100.169,75.752
				c-23.712,10.422-30.759,10.896-35.812,17.443c-5.052,6.545,10.008,44.051,10.008,44.051s14.4,37.764,22.552,39.142
				c8.153,1.376,13.651-3.059,38.137-11.501c24.487-8.442,78.27-25.686,124.977-12.368c46.709,13.317,70.609,21.855,70.609,21.855
				l-46.646-119.176l-46.644-119.176C245.973,382.021,234.219,404.515,208.959,445.999z"/>
			<path fill="#EB5B49" d="M187.155,540.571c-38.649,15.125-71.265,37.42-95.29,63.087c4.488,9.155,9.79,18.071,13.674,18.729
				c8.153,1.376,13.651-3.059,38.137-11.501c24.487-8.442,78.27-25.686,124.977-12.368c46.709,13.317,70.609,21.855,70.609,21.855
				l-38.392-98.088C265.572,519.575,226.142,525.312,187.155,540.571z"/>
		</g>
		<g>
			<path fill="#154D61" d="M360.954,591.425c2.637,13.795-1.14,23.761-12.304,28.131l0,0c-11.164,4.368-20.864-0.017-28.129-12.306
				c0,0-10.177-10.331-45.021-99.354c-34.842-89.021-34.381-103.518-34.381-103.518c-0.572-14.148,1.139-23.759,12.304-28.128l0,0
				c11.165-4.37,19.256-0.176,28.129,12.303c0,0,12.963,17.446,45.02,99.354C358.631,569.815,360.954,591.425,360.954,591.425z"/>
			<path fill="#FFFFFF" d="M322.67,489.434c23.575,60.234,31.869,113.296,31.869,113.296s-29.93-44.595-53.502-104.828
				c-23.576-60.231-31.869-113.294-31.869-113.294S299.098,429.201,322.67,489.434z"/>
		</g>
	</g>
	<g>
		<circle fill="#FFFFFF" cx="576.513" cy="446.63" r="30.932"/>
		<path fill="#154D61" d="M602.424,416.923c-16.406-14.311-41.309-12.612-55.619,3.795c-14.311,16.406-12.611,41.309,3.795,55.619
			c15.289,13.336,37.949,12.763,52.547-0.652l11.002,9.596l-2.885,3.307l39.057,34.067l2.885-3.307l5.768-6.613l2.885-3.306
			l-39.057-34.068l-2.885,3.307l-11.002-9.595C620.223,452.786,617.713,430.259,602.424,416.923z M556.18,469.94
			c-12.875-11.229-14.207-30.77-2.979-43.643c11.23-12.874,30.77-14.208,43.645-2.979c12.873,11.229,14.205,30.77,2.977,43.644
			C588.594,479.836,569.053,481.169,556.18,469.94z"/>
	</g>
	<g>
		<path d="M532.408,316.368c-1.188,2.084-3.847,2.819-5.938,1.626l-33.288-18.961c-2.089-1.189-2.815-3.851-1.627-5.936
			l37.28-65.449c1.189-2.088,3.847-2.817,5.936-1.627l33.287,18.961c2.094,1.192,2.82,3.848,1.631,5.937L532.408,316.368z"/>
		<path fill="#154D61" d="M515.799,304.398c-0.863,1.515-2.79,2.045-4.302,1.184c-1.516-0.863-2.044-2.791-1.18-4.306
			c0.859-1.511,2.789-2.042,4.304-1.179C516.133,300.958,516.659,302.888,515.799,304.398z"/>
		
			<rect x="543.388" y="239.225" transform="matrix(0.8689 0.495 -0.495 0.8689 190.5949 -240.3406)" fill="#154D61" width="11.314" height="0.87"/>
		
			<rect x="512.252" y="238.624" transform="matrix(0.8689 0.495 -0.495 0.8689 203.3956 -227.7617)" fill="#154D61" width="38.889" height="62.984"/>
	</g>
	<g>
		<path fill="#80D7DC" d="M636.14,326.16v-56.098c-5.707,0.123-10.632,0.975-16.197,2.784c-14.527,4.72-26.346,14.814-33.28,28.424
			c-6.711,13.17-8.069,28.109-3.872,42.225L636.14,326.16z"/>
		<path fill="#EB5B49" d="M662.99,337.025l-25.377-8.246l-53.915,17.52c6.08,17.385,18.587,29.578,36.244,35.316
			c5.75,1.868,11.699,2.815,17.683,2.815c24.349,0,45.826-15.262,53.9-38.133L662.99,337.025z"/>
		<path fill="#1D1D1B" d="M672.407,281.849l-32.409,44.606l52.439,17.04C699.332,320.393,691.565,296.484,672.407,281.849z"/>
		<path fill="#154D61" d="M639.087,322.696l30.937-42.582c-9.487-6.583-19.391-9.802-30.937-10.052V322.696z"/>
	</g>
	<path d="M389.532,329.284c-12.842,0-23.288-10.449-23.288-23.292c0-12.84,10.446-23.287,23.288-23.287
		c12.844,0,23.289,10.447,23.289,23.287C412.821,318.835,402.376,329.284,389.532,329.284z M409.173,309.183
		c-0.68-0.216-6.156-1.85-12.391-0.852c2.603,7.149,3.662,12.973,3.864,14.185C405.108,319.498,408.285,314.718,409.173,309.183z
		 M397.303,324.336c-0.296-1.747-1.45-7.829-4.246-15.084l-0.129,0.044c-11.221,3.909-15.247,11.69-15.607,12.421
		c3.373,2.63,7.613,4.199,12.211,4.199C392.286,325.917,394.916,325.354,397.303,324.336z M374.753,319.326
		c0.452-0.771,5.911-9.811,16.171-13.126c0.256-0.086,0.521-0.164,0.782-0.238c-0.498-1.129-1.043-2.261-1.612-3.375
		c-9.934,2.974-19.573,2.849-20.443,2.831c-0.006,0.203-0.013,0.404-0.013,0.608C369.638,311.134,371.575,315.798,374.753,319.326z
		 M370.06,301.951c0.889,0.011,9.085,0.048,18.39-2.422c-3.296-5.861-6.85-10.787-7.376-11.505
		C375.509,290.646,371.35,295.777,370.06,301.951z M384.87,286.686c0.551,0.735,4.163,5.656,7.423,11.643
		c7.075-2.649,10.068-6.675,10.428-7.185c-3.513-3.115-8.135-5.012-13.188-5.012C387.928,286.132,386.366,286.323,384.87,286.686z
		 M404.932,293.445c-0.422,0.567-3.754,4.84-11.109,7.842c0.463,0.949,0.906,1.912,1.321,2.882c0.146,0.345,0.288,0.686,0.428,1.027
		c6.619-0.832,13.196,0.502,13.853,0.64C409.378,301.141,407.701,296.829,404.932,293.445z"/>
	<g>
		<circle fill="#EB5B49" cx="624.458" cy="185.253" r="43.783"/>
		<path fill="#FFFFFF" d="M605.89,160.271h37.14c3.528,0,6.413,2.886,6.413,6.414v37.14c0,3.527-2.885,6.411-6.413,6.411h-37.14
			c-3.527,0-6.415-2.884-6.415-6.411v-37.14C599.475,163.156,602.362,160.271,605.89,160.271z M635.876,165.82
			c-1.239,0-2.25,1.014-2.25,2.252v5.382c0,1.239,1.011,2.251,2.25,2.251h5.646c1.236,0,2.25-1.012,2.25-2.251v-5.382
			c0-1.238-1.014-2.252-2.25-2.252H635.876z M643.794,181.4h-4.396c0.416,1.361,0.644,2.797,0.644,4.291
			c0,8.309-6.956,15.047-15.534,15.047c-8.576,0-15.534-6.738-15.534-15.047c0-1.493,0.229-2.929,0.645-4.291h-4.589v21.109
			c0,1.093,0.893,1.982,1.986,1.982h34.795c1.095,0,1.984-0.889,1.984-1.982V181.4z M624.507,175.422
			c-5.542,0-10.035,4.351-10.035,9.725c0,5.367,4.493,9.723,10.035,9.723s10.035-4.355,10.035-9.723
			C634.542,179.773,630.049,175.422,624.507,175.422z"/>
	</g>
	<g>
		<circle fill="#EB5B49" cx="660.368" cy="636.967" r="43.783"/>
		<g>
			<path fill="#FFFFFF" d="M671.946,658.982c-0.578,0.803-1.341,1.385-2.175,1.779l-2.261-21.27l18.646-1.783
				c-0.062,1.027-0.389,2.053-1.034,2.949L671.946,658.982z"/>
			<path fill="#FFFFFF" d="M660.062,637.73l26.549-2.539c-0.407-0.848-0.995-1.611-1.808-2.195l-28.122-20.223
				c-0.813-0.586-1.729-0.902-2.658-1.016L660.062,637.73z"/>
			<path fill="#FFFFFF" d="M665.229,640.137l-6.147,0.59c-0.359,0.033-0.702-0.068-0.979-0.268c-0.274-0.197-0.48-0.49-0.563-0.842
				l-1.397-6.016l-21.634,4.797c0.393,0.965,1.042,1.842,1.952,2.496l28.122,20.223c0.91,0.654,1.948,0.992,2.988,1.057
				L665.229,640.137z"/>
			<path fill="#FFFFFF" d="M651.145,612.125c-0.976,0.396-1.86,1.049-2.52,1.967l-13.48,18.746c-0.592,0.822-0.91,1.748-1.021,2.686
				l21.361-4.734L651.145,612.125z"/>
		</g>
	</g>
	<path d="M531.416,148.091l1.885-9.297l0.311-1.529l-1.56-0.045c-0.84-0.025-1.651-0.037-2.417-0.037
		c-8.789,0-12.153,1.629-14.504,4.075c-2.618,2.737-4.443,7.142-4.443,10.709c0,3.977,3.441,6.861,8.187,6.861
		c3.106,0,4.883-0.848,6.876-2.19c1.746,1.408,3.199,2.19,6.337,2.19c4.192,0,7.646-1.908,9.987-5.523
		c1.76-2.711,2.807-6.39,2.807-9.841c0-7.455-3.922-11.842-7.21-14.209c-3.688-2.654-8.712-4.238-13.436-4.238
		c-9.495,0-15.252,4.646-18.411,8.544c-3.82,4.718-6.012,11.022-6.012,17.3c0,6.081,2.36,11.105,6.827,14.533
		c3.761,2.881,8.802,4.467,14.197,4.467c6.585,0,13.226-1.694,19.2-4.9l1.093-0.587l-0.525-1.128l-1.814-3.883l-0.581-1.251
		l-1.223,0.645c-4.519,2.386-9.556,4.596-15.773,4.596c-4.102,0-7.521-1.144-9.885-3.308c-2.356-2.157-3.604-5.289-3.604-9.062
		c0-12.772,8.077-19.456,16.055-19.456c3.925,0,7.248,1.166,9.61,3.373c2.34,2.188,3.577,5.256,3.577,8.871
		c0,1.372-0.3,3.644-1.134,5.531c-0.888,2.002-2.121,3.019-3.669,3.019c-0.902,0-1.254-0.324-1.254-1.153
		c0-0.525,0.253-1.791,0.402-2.549C531.351,148.42,531.387,148.239,531.416,148.091 M524.474,144.006
		c-1.663,6.861-3.754,8.314-5.223,8.314c-0.211,0-0.65,0-0.65-0.66c0-1.959,1.349-4.886,3.007-6.521
		C522.263,144.483,523.331,144.2,524.474,144.006"/>
	<g>
		<path fill="#154D61" d="M497.233,359.927c-8.712-7.133-21.553-5.851-28.684,2.859c-7.13,8.708-7.961,41.9-7.961,41.9
			s32.375-7.367,39.504-16.075C507.224,379.901,505.944,367.059,497.233,359.927z M482.23,378.252
			c-2.708-2.217-3.104-6.208-0.888-8.916c2.217-2.707,6.208-3.105,8.915-0.889c2.706,2.215,3.107,6.209,0.891,8.917
			C488.932,380.071,484.937,380.467,482.23,378.252z"/>
	</g>
	<g>
		<path d="M731.992,356.691c5.239-5.239,13.243-5.985,19.297-2.287c-2.049,2.032-4.416,4.402-4.416,4.402
			c-1.654,1.989,0.205,3.132,1.147,3.103l11.063-0.002c0.584,0,1.06,0.002,1.06,0.002h1.067h2.145c0.585,0,1.062-0.478,1.064-1.065
			v-15.209c0.069-1.39-1.463-2.741-3.036-1.187c0,0-2.614,2.542-4.413,4.329c-9.219-6.735-22.213-5.97-30.535,2.358
			c-4.858,4.858-7.123,11.303-6.855,17.666h7.869C727.174,364.455,728.665,360.018,731.992,356.691"/>
		<path d="M758.162,366.158c0.279,4.349-1.212,8.786-4.538,12.113c-5.24,5.237-13.25,5.985-19.301,2.284
			c2.052-2.028,4.418-4.4,4.418-4.4c1.655-1.984-0.203-3.133-1.151-3.104l-11.059,0.005c-0.583,0-1.062-0.005-1.062-0.005H724.4
			h-2.146c-0.584,0-1.062,0.48-1.062,1.066v15.208c-0.065,1.387,1.46,2.737,3.037,1.183c0,0,2.608-2.542,4.413-4.324
			c9.223,6.736,22.212,5.974,30.536-2.354c4.856-4.861,7.121-11.303,6.855-17.669h-7.872V366.158z"/>
	</g>
	<path fill="#154D61" d="M760.165,122.939l-35.591-23.047c-3.023-1.958-7.062-1.094-9.021,1.932l-12.408,19.161
		c-1.958,3.024-1.094,7.064,1.928,9.022l2.74,1.773l-6.204,9.58c-0.228,0.352-0.321,0.787-0.226,1.229
		c0.187,0.88,1.051,1.443,1.936,1.254l18.182-3.2l19.164,12.411c3.021,1.956,7.063,1.093,9.022-1.931l12.408-19.162
		C764.054,128.938,763.188,124.897,760.165,122.939 M723.361,110.765l21.903,14.184c0.758,0.49,0.973,1.499,0.482,2.256
		c-0.489,0.755-1.498,0.972-2.256,0.482l-21.902-14.184c-0.755-0.489-0.971-1.498-0.48-2.254
		C721.598,110.491,722.606,110.275,723.361,110.765 M725.45,131.544l-10.951-7.092c-0.755-0.489-0.972-1.498-0.482-2.253
		c0.491-0.758,1.499-0.972,2.253-0.483l10.953,7.092c0.755,0.49,0.973,1.496,0.481,2.255
		C727.216,131.818,726.206,132.033,725.45,131.544 M745.42,136.706l-27.377-17.728c-0.755-0.489-0.97-1.497-0.479-2.255
		c0.49-0.756,1.497-0.971,2.253-0.482l27.377,17.728c0.759,0.492,0.974,1.498,0.484,2.254
		C747.187,136.981,746.18,137.198,745.42,136.706"/>
	<g>
		<path fill="#FFFFFF" d="M696.727,567.132l-1.948,2.009l4.231,4.107l1.951-2.004c1.846,1.229,3.96,2.089,6.235,2.477l0.042,2.795
			l5.897-0.085l-0.04-2.798c2.259-0.45,4.349-1.373,6.16-2.656l2.008,1.945l4.108-4.232l-2.006-1.947
			c1.23-1.849,2.089-3.962,2.474-6.236l2.799-0.042l-0.089-5.897l-2.796,0.039c-0.451-2.262-1.371-4.349-2.654-6.16l1.947-2.007
			l-4.231-4.107l-1.95,2.004c-1.849-1.229-3.965-2.092-6.236-2.474l-0.043-2.798l-5.896,0.085l0.04,2.798
			c-2.263,0.453-4.348,1.373-6.162,2.656l-2.006-1.945l-4.109,4.232l2.006,1.95c-1.231,1.846-2.09,3.962-2.475,6.233l-2.798,0.041
			l0.085,5.9l2.799-0.041C694.522,563.235,695.441,565.322,696.727,567.132 M709.738,545.859
			c6.587-0.098,12.007,5.165,12.104,11.756c0.099,6.589-5.166,12.007-11.754,12.104c-6.59,0.098-12.009-5.165-12.106-11.756
			C697.885,551.377,703.147,545.954,709.738,545.859"/>
		<path fill="#FFFFFF" d="M743.047,532.299l1.751-0.774l-1.923-4.329l-1.746,0.779c-0.774-1.055-1.714-1.95-2.804-2.669l0.685-1.785
			l-4.417-1.699l-0.685,1.782c-1.284-0.194-2.6-0.163-3.869,0.098l-0.778-1.748l-4.324,1.921l0.775,1.748
			c-1.054,0.772-1.951,1.712-2.667,2.806l-1.785-0.687l-1.701,4.417l1.784,0.684c-0.198,1.293-0.163,2.591,0.096,3.869l-1.743,0.779
			l1.918,4.324l1.745-0.776c0.775,1.055,1.716,1.948,2.807,2.669l-0.688,1.782l4.418,1.702l0.688-1.782
			c1.281,0.192,2.597,0.16,3.867-0.098l0.776,1.746l4.326-1.922l-0.774-1.748c1.052-0.77,1.948-1.712,2.667-2.803l1.786,0.687
			l1.7-4.414l-1.786-0.689C743.346,534.875,743.311,533.577,743.047,532.299 M735.245,541.262c-0.921,0.407-1.894,0.621-2.89,0.636
			c-2.968,0.044-5.663-1.683-6.865-4.393c-1.654-3.723,0.029-8.102,3.755-9.754c0.918-0.409,1.89-0.621,2.886-0.636
			c2.971-0.044,5.664,1.68,6.869,4.393C740.65,535.23,738.968,539.606,735.245,541.262"/>
	</g>
	<g>
		<circle fill="#FFFFFF" cx="537.091" cy="572.137" r="40.614"/>
		<g>
			<circle fill="#154D61" cx="522.968" cy="586.298" r="5.861"/>
			<path fill="#154D61" d="M517.114,571.524c5.494,0,10.653,2.147,14.535,6.045c3.884,3.902,6.021,9.101,6.021,14.634h8.459
				c0-16.066-13.016-29.139-29.016-29.139V571.524z"/>
			<path fill="#154D61" d="M517.125,556.525c19.568,0,35.493,16.011,35.493,35.684h8.456c0-24.342-19.713-44.145-43.949-44.145
				V556.525z"/>
		</g>
	</g>
	<g>
		<circle fill="#80D7DC" cx="750.711" cy="445.797" r="38.684"/>
		<path fill="#00B0BA" d="M774.258,431.191c-1.734,0.771-3.596,1.289-5.549,1.521c1.994-1.195,3.529-3.087,4.246-5.346
			c-1.863,1.108-3.93,1.914-6.131,2.348c-1.764-1.881-4.277-3.053-7.055-3.053c-5.334,0-9.662,4.326-9.662,9.661
			c0,0.759,0.086,1.495,0.25,2.2c-8.031-0.4-15.148-4.246-19.914-10.094c-0.83,1.43-1.307,3.088-1.307,4.859
			c0,3.35,1.705,6.309,4.295,8.039c-1.582-0.049-3.07-0.484-4.373-1.207v0.121c0,4.68,3.33,8.586,7.748,9.475
			c-0.811,0.219-1.666,0.34-2.545,0.34c-0.623,0-1.229-0.062-1.818-0.175c1.23,3.839,4.797,6.63,9.023,6.71
			c-3.305,2.592-7.469,4.137-11.998,4.137c-0.779,0-1.547-0.048-2.303-0.137c4.273,2.74,9.352,4.34,14.812,4.34
			c17.77,0,27.486-14.719,27.486-27.488c0-0.418-0.01-0.834-0.025-1.252C771.322,434.832,772.959,433.131,774.258,431.191z"/>
	</g>
	<g>
		<circle fill="#154D61" cx="743.623" cy="253.085" r="40"/>
		<path fill="#FFFFFF" d="M748.275,240.658c2.08,1.303,3.537,3.51,3.803,6.07c0.848,0.396,1.789,0.625,2.789,0.625
			c3.643,0,6.594-2.953,6.594-6.596s-2.951-6.596-6.594-6.596C751.256,234.164,748.33,237.062,748.275,240.658 M743.953,254.162
			c3.643,0,6.598-2.953,6.598-6.595s-2.955-6.597-6.598-6.597c-3.641,0-6.596,2.955-6.596,6.597
			C737.357,251.21,740.312,254.162,743.953,254.162 M746.75,254.612h-5.596c-4.656,0-8.443,3.788-8.443,8.444v6.846l0.016,0.107
			l0.473,0.146c4.443,1.389,8.305,1.852,11.482,1.852c6.205,0,9.805-1.77,10.025-1.883l0.441-0.223h0.047v-6.846
			C755.195,258.4,751.408,254.612,746.75,254.612 M757.662,247.803h-5.551c-0.062,2.224-1.01,4.223-2.51,5.662
			c4.141,1.23,7.168,5.069,7.168,9.604v2.109c5.482-0.203,8.643-1.756,8.852-1.861l0.441-0.225h0.047v-6.844
			C766.109,251.591,762.322,247.803,757.662,247.803 M732.381,247.354c1.289,0,2.49-0.376,3.508-1.018
			c0.322-2.107,1.453-3.952,3.068-5.205c0.006-0.125,0.02-0.246,0.02-0.371c0-3.643-2.955-6.596-6.596-6.596
			c-3.645,0-6.598,2.953-6.598,6.596C725.783,244.4,728.736,247.354,732.381,247.354 M738.305,253.465
			c-1.492-1.432-2.439-3.422-2.508-5.63c-0.205-0.015-0.408-0.032-0.619-0.032h-5.598c-4.656,0-8.445,3.788-8.445,8.445v6.844
			l0.018,0.107l0.471,0.148c3.566,1.113,6.75,1.626,9.512,1.787v-2.066C731.135,258.534,734.164,254.697,738.305,253.465"/>
	</g>
	<g>
		<circle fill="#154D61" cx="437.848" cy="225.253" r="40"/>
		<path fill="#FFFFFF" d="M448.856,227.539l1.194-9.261h-9.171v-5.913c0-2.681,0.749-4.508,4.592-4.508l4.9-0.002v-8.282
			c-0.846-0.112-3.754-0.365-7.144-0.365c-7.071,0-11.908,4.316-11.908,12.241v6.829h-7.997v9.261h7.997v23.759h9.56v-23.759
			H448.856z"/>
	</g>
	<g>
		<circle fill="#80D7DC" cx="624.459" cy="76.249" r="41.5"/>
		<polygon fill="#00B0BA" points="612.488,55.498 643.22,76.249 612.488,97 		"/>
	</g>
	<g>
		<path d="M445.74,452.181c0.736,2.164-0.42,4.519-2.584,5.258l-72.404,24.683c-2.165,0.737-4.518-0.42-5.256-2.584l0,0
			c-0.738-2.165,0.419-4.52,2.583-5.256l72.404-24.685C442.647,448.859,445.001,450.017,445.74,452.181L445.74,452.181z"/>
		<g>
			<path d="M392.148,368.173c2.052,1.008,2.898,3.491,1.89,5.544l-33.743,68.65c-1.009,2.053-3.492,2.899-5.544,1.89l0,0
				c-2.052-1.008-2.898-3.491-1.89-5.543l33.743-68.65C387.613,368.011,390.096,367.164,392.148,368.173L392.148,368.173z"/>
			<path d="M454.622,551.43c1.009-2.053,0.163-4.536-1.889-5.543l-68.651-33.744c-2.052-1.01-4.536-0.163-5.543,1.891l0,0
				c-1.01,2.052-0.163,4.534,1.89,5.544l68.65,33.743C451.131,554.327,453.614,553.481,454.622,551.43L454.622,551.43z"/>
		</g>
	</g>
</g>
</svg>
