<?xml version="1.0" encoding="utf-8"?>
<!-- Generator: Adobe Illustrator 16.0.0, SVG Export Plug-In . SVG Version: 6.00 Build 0)  -->
<!DOCTYPE svg PUBLIC "-//W3C//DTD SVG 1.1//EN" "http://www.w3.org/Graphics/SVG/1.1/DTD/svg11.dtd">
<svg version="1.1" id="_x2014_ŽÓť_x5F_1" xmlns="http://www.w3.org/2000/svg" xmlns:xlink="http://www.w3.org/1999/xlink"
	 x="0px" y="0px" width="228px" height="328px" viewBox="0 0 228 328" enable-background="new 0 0 228 328" xml:space="preserve">
<g>
	<g>
		<polygon fill="#FFAB6B" points="203.833,145.362 206.679,147.954 211.578,171.311 181.15,169.299 183.319,152.854 
			190.354,150.709 196.167,143.694 		"/>
		<path fill="#1B3689" d="M116.884,114.752c-2.347,0.592,0.119,8.246-0.124,12.109c2.806,6.123,23.71,51.195,73.978,48.111
			c-1.133-4.904-2.392-29.396-2.392-29.396C165.129,151.846,136.907,155.1,116.884,114.752z"/>
		<polygon opacity="0.35" points="198.666,170.536 196.931,159.042 198.563,147.594 206.526,143.559 207.55,148.069 
			211.578,171.311 		"/>
		<path fill="#FFAB6B" d="M206.323,143.543c0,0-4.938,2.355-5.607,5.197c-0.669,2.84-2.393,18.422-0.066,20.793
			c2.53,2.578,14.719,2.855,17.253-0.338c2.535-3.193,3.013-6.799,3.036-10.131c0.023-3.33-1.678-14.883-3.78-16.365
			C213.491,140.112,206.323,143.543,206.323,143.543z"/>
		<path fill="#FFAB6B" d="M195.046,144.94c0.454-2.246,1.454-4.246-0.379-12.488c-0.576-2.594,4.592-2.004,6.666-0.592
			c2.074,1.414,2.951,13.045,2.951,13.045S194.532,147.477,195.046,144.94z"/>
	</g>
	<path fill="#3A1402" d="M42.305,43.073c-9.833-5.666-17,2.334-4.167,38c10.563,29.361,6.834-6.5,6.834-6.5L42.305,43.073z"/>
	<g>
		<g>
			<path fill="#F7A568" d="M42.875,74.87c-13.695-6.742-18.146,17.455,0.646,10.162L42.875,74.87z"/>
			<path fill="#BD7E4F" d="M40.817,79.549c-6.35-2.457-6.13,5.375,0.353,2.832L40.817,79.549z"/>
		</g>
		
			<ellipse transform="matrix(-0.9628 0.2703 -0.2703 -0.9628 91.257 140.2463)" opacity="0.3" fill="#FFFFFF" cx="35.972" cy="76.407" rx="2.276" ry="1.322"/>
	</g>
	<path fill="#3A1402" d="M118.972,93.407c19.5-32.832,11.832-71.834-3.834-59.5L118.972,93.407z"/>
	<g>
		<g>
			<path fill="#F7A568" d="M119.881,70.241c13.649-6.834,18.264,17.332-0.577,10.166L119.881,70.241z"/>
			<path fill="#BD7E4F" d="M121.971,74.907c6.333-2.5,6.166,5.334-0.334,2.834L121.971,74.907z"/>
		</g>
		
			<ellipse transform="matrix(-0.9761 -0.2175 0.2175 -0.9761 234.7646 169.7751)" opacity="0.3" fill="#FFFFFF" cx="126.727" cy="71.966" rx="2.276" ry="1.322"/>
	</g>
	<path fill="#FFAB6B" d="M122.191,213.018c-1.326,1.475,0.129,5.746-3.103,7.596c-10.317,5.908-28.766,12.227-45.268,9.344
		c-4.316-0.754-8.499-2.139-12.368-4.32c-0.784-0.443-1.557-0.92-2.315-1.432c-0.196-0.131-18.293-116.218-18.659-162.087
		c-0.056-6.891,0.288-12.357,1.155-15.811c4.269-0.23,8.538-0.461,12.804-0.693c0.722-0.037,1.443-0.076,2.166-0.117
		c14.235-0.771,28.472-1.545,42.71-2.314c1.362-0.074,2.729-0.146,4.092-0.223c5.112-0.277,10.225-0.553,15.338-0.832
		c0.756,3.172,1.41,8.096,1.984,14.295C124.604,98.422,120.801,203.453,122.191,213.018z"/>
	<g>
		<path fill="#910A00" d="M105.147,87.965c0,0,3.724,11.201-21.682,13.697c-24.029,2.359-22.347-9.969-22.347-9.969
			c-4.745,12.113,2.086,24.059,23.088,21.754C105.204,111.145,110.044,97.366,105.147,87.965z"/>
		<path fill="#FFFFFF" d="M84.207,113.448c-12.191,1.338-19.6-2.129-22.75-7.643c-0.71-2.457-0.244-5.703,0.396-10.334
			c1.618,3.404,6.597,7.666,21.612,6.191c15.801-1.553,20.333-6.471,21.501-9.969c0.327,2.26,0.718,6.406,0.102,10.521
			C102.13,107.637,95.516,112.208,84.207,113.448z"/>
		<path fill="#C4C4C4" d="M61.219,100.571c0.135-1.488,0.369-3.174,0.635-5.1c1.618,3.404,6.597,7.666,21.612,6.191
			c15.801-1.553,20.333-6.471,21.501-9.969c0.23,1.609,0.495,4.184,0.405,7.018c-1.534-0.842-1.503-2.482-6.193,0.262
			c-9.599,5.607-23.075,6.141-30.425,3.201C64.424,100.438,62.836,98.543,61.219,100.571z"/>
		<path fill="#C4C4C4" d="M101.643,102.565c0,0-7.87,5.004-17.172,4.508C85.5,108.891,97.623,107.422,101.643,102.565z"/>
	</g>
	<path fill="#1B3689" d="M122.873,115.961c1.252,13.938,3.564,80.931,3.169,81.583l-72.001,9.385
		c0.078-2.73-10.829-81.742-9.579-86.273l37.545,10.461L122.873,115.961z"/>
	<path fill="#4D4D4D" d="M126.042,197.545c0,0,0.23,17.992-5.833,23.072c-6.069,5.082-40.671,18.461-60.708,4.379
		c-4.268-3.67-6.102-12.855-5.611-18.43L126.042,197.545z"/>
	<path fill="#2E2E2E" d="M93.044,300.164l15.336,4.764c0,0,12.137-1.904,14.656,4.896c1.652,4.459,2.127,6.088,2.127,6.088
		c-12.019,0-43.104-0.207-43.104-0.207c-0.205-3.938,4.121-14.506,4.121-14.506L93.044,300.164z"/>
	<path fill="#4D4D4D" d="M98.243,226.783l-16.271,85.623l22-8.334l-0.867-37.758c3.255-15.801,14.131-46.027,14.131-46.027
		L98.243,226.783z"/>
	<path fill="#2E2E2E" d="M51.841,300.164l-15.336,4.764c0,0-12.137-1.904-14.656,4.896c-1.652,4.459-2.127,6.088-2.127,6.088
		c12.02,0,43.102-0.207,43.102-0.207c0.208-3.938-1.12-14.506-1.12-14.506L51.841,300.164z"/>
	<path fill="#4D4D4D" d="M76.114,227.723l-12.81,84.018l-20-8.668l15-37.332c1.446-16.07,0.326-42.238,0.326-42.238L76.114,227.723z
		"/>
	<path fill="#FFAB6B" d="M63.055,200.822c3.5,2.5-1.097,13.41-1.097,13.41s1.916,3.107-2.619,4.975
		c-4.534,1.865-26.258-9.465-26.258-9.465l-6.245-5.641l7.591-14.109l-0.04-0.02l0.062-0.02l1.481-3.631l4.875,1.75l10.625-3.25
		l0.783,6.32C52.213,191.143,60.282,198.842,63.055,200.822z"/>
	<path fill="#BA7239" d="M34.521,210.477c-0.91-0.459-1.439-0.734-1.439-0.734l-6.245-5.641l7.591-14.109l-0.04-0.02l0.062-0.02
		l0.722-1.77l2.981,0.416l1.434-0.965l1.22,0.438l2.75-0.75C41.526,192.916,37.232,204.516,34.521,210.477z"/>
	<path fill="#1B3689" d="M45.208,128.297c0.052,1.623,0.227,4,0.495,6.928c-25.954,19.102-17.994,34.709-3.913,50.595
		c0,0-7.039,19.148-10.062,24.621C-16.999,174.189,33.927,135.958,45.208,128.297z"/>
	<g>
		<polygon opacity="0.2" points="86.843,182.871 81.993,191.057 68.253,176.193 75.34,140.407 76.14,130.584 		"/>
		<polygon fill="#4C8938" points="91.229,126.61 91.806,134.983 76.054,136.979 75.524,127.008 		"/>
		<polygon fill="#4C8938" points="90.28,134.866 98.889,172.318 85.315,188.684 70.946,174.162 77.304,135.194 		"/>
		<polygon opacity="0.36" points="91.067,138.292 76.538,139.889 77.195,135.86 90.433,135.526 		"/>
		<polygon fill="#4C8938" points="92.517,128.088 93.077,135.723 74.511,137.766 74.028,128.674 		"/>
		<path fill="#477A35" d="M72.281,165.983l21.48-15.977l-2.19-9.525l-17.552,14.85L72.281,165.983z M72.579,175.812l4.877,4.926
			l19.342-17.513l-1.221-5.311L72.579,175.812z"/>
	</g>
	<g>
		<circle fill="#1F586B" cx="100.304" cy="72.969" r="4.895"/>
		<circle opacity="0.3" fill="#FFFFFF" cx="101.964" cy="71.352" r="1.879"/>
	</g>
	<g>
		<circle fill="#1F586B" cx="63.637" cy="75.301" r="4.895"/>
		<circle opacity="0.3" fill="#FFFFFF" cx="65.297" cy="73.684" r="1.878"/>
	</g>
	<path fill="#3A1402" d="M40.972,35.907l0.139-0.041C10.854,21.167,28.008,20.245,57.862,24.754
		c-12.947-11.26,1.58-9.406,24.826-2.219c-17.494-24.883,17.126-0.08,32.449,11.371l5.834,12.5
		c-16.166,13.168-58.167,6.834-79.338-0.1C17.63,39.542,16.305,29.907,40.972,35.907z"/>
	<path fill="#3A1402" d="M111.555,60.641c3.955,1.604,1.458,6.633-2.852,5.57c-4.311-1.064-10.953-2.299-14.544-2.828
		c-3.589-0.525-3.072-7.168,2.136-6.285C101.5,57.979,111.555,60.641,111.555,60.641z"/>
	<path fill="#3A1402" d="M51.302,63.684c-3.832,1.877-0.988,6.719,3.236,5.355c4.226-1.365,10.765-3.064,14.309-3.842
		c3.544-0.779,2.562-7.367-2.571-6.121C61.146,60.321,51.302,63.684,51.302,63.684z"/>
</g>
</svg>
