<?xml version="1.0" encoding="utf-8"?>
<!-- Generator: Adobe Illustrator 16.0.0, SVG Export Plug-In . SVG Version: 6.00 Build 0)  -->
<!DOCTYPE svg PUBLIC "-//W3C//DTD SVG 1.1//EN" "http://www.w3.org/Graphics/SVG/1.1/DTD/svg11.dtd">
<svg version="1.1" xmlns="http://www.w3.org/2000/svg" xmlns:xlink="http://www.w3.org/1999/xlink" x="0px" y="0px" width="420px"
	 height="66.5px" viewBox="0 0 420 66.5" enable-background="new 0 0 420 66.5" xml:space="preserve">
<g id="Layer_1">
	<g id="HEn7jO.tif">
		<polygon fill="#A2B730" points="19,63.5 37,63.5 37,16.5 52,16.5 52,3.5 19,3.5 		"/>
		<rect x="3" y="3.5" fill="#A2B730" width="11" height="13"/>
		<rect x="58" y="3.5" fill="#A2B730" width="18" height="60"/>
		<g>
			<path fill="#A2B730" d="M81,3.522h8.035c4.969,0,8.783,1.431,11.443,4.294c2.66,2.863,3.99,6.408,3.99,10.634
				c0,3.544-0.949,6.584-2.848,9.12c-1.266,1.691-3.117,3.026-5.555,4.008c3.703,1.037,6.428,2.815,8.174,5.337
				c1.746,2.522,2.619,5.691,2.619,9.509c0,3.108-0.621,5.903-1.863,8.383c-1.243,2.481-2.941,4.444-5.098,5.89
				c-1.336,0.899-3.352,1.554-6.047,1.963c-3.586,0.545-5.965,0.818-7.137,0.818H81V3.522z"/>
		</g>
		<g>
			<path fill="#363636" d="M114.77,3.605h11.83c2.332,0,4.216,0.316,5.651,0.949s2.622,1.541,3.56,2.725s1.617,2.561,2.039,4.131
				s0.633,3.234,0.633,4.992c0,2.754-0.313,4.89-0.94,6.407s-1.497,2.789-2.61,3.814s-2.309,1.708-3.586,2.048
				c-1.746,0.469-3.328,0.703-4.746,0.703h-11.83V3.605z M122.732,9.441v14.08h1.951c1.664,0,2.848-0.185,3.551-0.554
				s1.254-1.014,1.652-1.934s0.598-2.411,0.598-4.474c0-2.73-0.445-4.6-1.336-5.607s-2.367-1.512-4.43-1.512H122.732z"/>
			<path fill="#363636" d="M143.008,3.605h21.34v5.502h-13.359v4.096h12.393v5.256h-12.393v5.08h13.746v5.836h-21.727V3.605z"/>
			<path fill="#363636" d="M166.853,3.605h8.324l5.8,18.545l5.726-18.545h8.082l-9.568,25.77h-8.631L166.853,3.605z"/>
			<path fill="#363636" d="M197.729,3.605h21.34v5.502h-13.359v4.096h12.393v5.256h-12.393v5.08h13.746v5.836h-21.727V3.605z"/>
			<path fill="#363636" d="M224.104,3.605h7.963v19.424h12.428v6.346h-20.391V3.605z"/>
			<path fill="#363636" d="M246.858,16.508c0-4.207,1.172-7.482,3.516-9.826s5.607-3.516,9.791-3.516
				c4.289,0,7.594,1.151,9.914,3.454s3.48,5.528,3.48,9.677c0,3.012-0.507,5.481-1.521,7.409s-2.479,3.428-4.395,4.5
				s-4.304,1.608-7.163,1.608c-2.906,0-5.312-0.463-7.216-1.389s-3.448-2.391-4.632-4.395S246.858,19.52,246.858,16.508z
				 M254.821,16.543c0,2.602,0.483,4.471,1.45,5.607s2.282,1.705,3.946,1.705c1.711,0,3.035-0.557,3.973-1.67
				s1.406-3.111,1.406-5.994c0-2.426-0.489-4.198-1.468-5.317s-2.306-1.679-3.981-1.679c-1.605,0-2.895,0.568-3.867,1.705
				S254.821,13.918,254.821,16.543z"/>
			<path fill="#363636" d="M278.174,3.605h13.236c2.883,0,5.042,0.686,6.478,2.057s2.153,3.322,2.153,5.854
				c0,2.602-0.782,4.635-2.347,6.1s-3.952,2.197-7.163,2.197h-4.359v9.562h-7.998V3.605z M286.172,14.592h1.951
				c1.535,0,2.613-0.267,3.234-0.8s0.932-1.216,0.932-2.048c0-0.809-0.27-1.494-0.809-2.057s-1.553-0.844-3.041-0.844h-2.268V14.592
				z"/>
			<path fill="#363636" d="M304.479,3.605h10.473l4.039,15.68L323,3.605h10.465v25.77h-6.521V9.723l-5.024,19.652h-5.903L311,9.723
				v19.652h-6.521V3.605z"/>
			<path fill="#363636" d="M338.888,3.605h21.34v5.502h-13.359v4.096h12.393v5.256h-12.393v5.08h13.746v5.836h-21.727V3.605z"/>
			<path fill="#363636" d="M365.316,3.605h7.436l9.703,14.257V3.605h7.506v25.77h-7.506l-9.65-14.149v14.149h-7.488V3.605z"/>
			<path fill="#363636" d="M393.801,3.605h24.205v6.363h-8.121v19.406h-7.963V9.969h-8.121V3.605z"/>
		</g>
		<g>
			<path fill="#363636" d="M135.843,50.967l5.59,1.248c-0.293,1.031-0.574,1.857-0.844,2.479s-0.65,1.354-1.143,2.197l2.689,1.846
				c0.328,0.211,0.75,0.463,1.266,0.756l-3.85,4.43c-0.703-0.375-1.433-0.809-2.188-1.301s-1.433-0.914-2.03-1.266
				c-1.242,0.82-2.484,1.418-3.727,1.793c-1.723,0.516-3.68,0.773-5.871,0.773c-3.434,0-5.988-0.715-7.664-2.145
				s-2.514-3.164-2.514-5.203c0-1.465,0.492-2.851,1.477-4.157s2.596-2.411,4.834-3.313c-0.938-1.137-1.582-2.124-1.934-2.962
				s-0.527-1.69-0.527-2.558c0-1.828,0.697-3.334,2.092-4.518s3.51-1.775,6.346-1.775c2.895,0,5.021,0.562,6.381,1.688
				s2.039,2.473,2.039,4.043c0,0.879-0.208,1.723-0.624,2.531s-0.917,1.465-1.503,1.969s-1.635,1.254-3.146,2.25
				c1.254,1.254,2.561,2.42,3.92,3.498C135.275,52.543,135.585,51.775,135.843,50.967z M125.068,52.707
				c-0.984,0.691-1.638,1.283-1.96,1.775s-0.483,1.014-0.483,1.564c0,0.855,0.369,1.617,1.107,2.285s1.699,1.002,2.883,1.002
				c1.277,0,2.713-0.498,4.307-1.494C129.398,56.668,127.447,54.957,125.068,52.707z M127.617,46.449
				c0.926-0.504,1.641-1.052,2.145-1.644s0.756-1.151,0.756-1.679c0-0.551-0.211-1.017-0.633-1.397s-1.002-0.571-1.74-0.571
				c-0.727,0-1.318,0.211-1.775,0.633s-0.686,0.92-0.686,1.494C125.683,44.012,126.328,45.066,127.617,46.449z"/>
			<path fill="#363636" d="M159.117,37.73h7.98V63.5h-7.98V37.73z"/>
			<path fill="#363636" d="M172.503,37.73h7.436l9.703,14.257V37.73h7.506V63.5h-7.506l-9.65-14.149V63.5h-7.488V37.73z"/>
			<path fill="#363636" d="M199.548,37.73h8.324l5.8,18.545l5.726-18.545h8.082l-9.568,25.77h-8.631L199.548,37.73z"/>
			<path fill="#363636" d="M229.704,37.73h21.34v5.502h-13.359v4.096h12.393v5.256h-12.393v5.08h13.746V63.5h-21.727V37.73z"/>
			<path fill="#363636" d="M253.97,54.975l7.576-0.475c0.164,1.23,0.498,2.168,1.002,2.812c0.82,1.043,1.992,1.564,3.516,1.564
				c1.137,0,2.013-0.267,2.628-0.8s0.923-1.151,0.923-1.854c0-0.668-0.293-1.266-0.879-1.793s-1.945-1.025-4.078-1.494
				c-3.492-0.785-5.982-1.828-7.471-3.129c-1.5-1.301-2.25-2.959-2.25-4.975c0-1.324,0.384-2.575,1.151-3.753
				s1.922-2.104,3.463-2.777s3.653-1.011,6.337-1.011c3.293,0,5.804,0.612,7.532,1.837s2.757,3.173,3.085,5.845L269,45.412
				c-0.199-1.16-0.618-2.004-1.257-2.531s-1.521-0.791-2.646-0.791c-0.926,0-1.623,0.196-2.092,0.589s-0.703,0.87-0.703,1.433
				c0,0.41,0.193,0.779,0.58,1.107c0.375,0.34,1.266,0.656,2.672,0.949c3.48,0.75,5.974,1.509,7.479,2.276s2.602,1.72,3.287,2.856
				s1.028,2.408,1.028,3.814c0,1.652-0.457,3.176-1.371,4.57s-2.191,2.452-3.832,3.173s-3.709,1.081-6.205,1.081
				c-4.383,0-7.418-0.844-9.105-2.531S254.193,57.576,253.97,54.975z"/>
			<path fill="#363636" d="M279.187,37.73h24.205v6.363h-8.121V63.5h-7.963V44.094h-8.121V37.73z"/>
			<path fill="#363636" d="M306.547,37.73h10.473l4.039,15.68l4.01-15.68h10.465V63.5h-6.521V43.848L323.987,63.5h-5.903
				l-5.016-19.652V63.5h-6.521V37.73z"/>
			<path fill="#363636" d="M340.236,37.73h21.34v5.502h-13.359v4.096h12.393v5.256h-12.393v5.08h13.746V63.5h-21.727V37.73z"/>
			<path fill="#363636" d="M365.944,37.73h7.436l9.703,14.257V37.73h7.506V63.5h-7.506l-9.65-14.149V63.5h-7.488V37.73z"/>
			<path fill="#363636" d="M393.709,37.73h24.205v6.363h-8.121V63.5h-7.963V44.094h-8.121V37.73z"/>
		</g>
	</g>
</g>
<g id="Layer_3">
</g>
<g id="Layer_2">
</g>
</svg>
